<mxfile host="app.diagrams.net" modified="2024-05-02T15:10:21.150Z" agent="Mozilla/5.0 (Windows NT 10.0; Win64; x64; rv:125.0) Gecko/20100101 Firefox/125.0" etag="Rz5ZUWpHeBFxmxyy8oCD" version="24.3.1" type="device">
  <diagram name="Page-1" id="PaM3hAsv0p1LVPKVbNv6">
    <mxGraphModel dx="628" dy="329" grid="1" gridSize="10" guides="1" tooltips="1" connect="1" arrows="1" fold="1" page="1" pageScale="1" pageWidth="850" pageHeight="1100" math="0" shadow="0">
      <root>
        <mxCell id="0" />
        <mxCell id="1" parent="0" />
        <mxCell id="-R4UiotYeWdrvrbhJRBY-1" value="Bot" style="shape=umlActor;verticalLabelPosition=bottom;verticalAlign=top;html=1;outlineConnect=0;" parent="1" vertex="1">
          <mxGeometry x="120" y="210" width="30" height="60" as="geometry" />
        </mxCell>
        <mxCell id="-R4UiotYeWdrvrbhJRBY-2" value="&lt;div&gt;&lt;u&gt;&amp;lt;&amp;lt;Controller&amp;gt;&amp;gt;&lt;/u&gt;&lt;/div&gt;&lt;div&gt;&lt;u&gt;:TradingHandler&lt;/u&gt;&lt;br&gt;&lt;/div&gt;" style="shape=umlLifeline;perimeter=lifelinePerimeter;whiteSpace=wrap;html=1;container=1;dropTarget=0;collapsible=0;recursiveResize=0;outlineConnect=0;portConstraint=eastwest;newEdgeStyle={&quot;curved&quot;:0,&quot;rounded&quot;:0};" parent="1" vertex="1">
          <mxGeometry x="325" y="210" width="100" height="300" as="geometry" />
        </mxCell>
        <mxCell id="-R4UiotYeWdrvrbhJRBY-14" value="" style="html=1;points=[[0,0,0,0,5],[0,1,0,0,-5],[1,0,0,0,5],[1,1,0,0,-5]];perimeter=orthogonalPerimeter;outlineConnect=0;targetShapes=umlLifeline;portConstraint=eastwest;newEdgeStyle={&quot;curved&quot;:0,&quot;rounded&quot;:0};" parent="-R4UiotYeWdrvrbhJRBY-2" vertex="1">
          <mxGeometry x="45" y="110" width="10" height="160" as="geometry" />
        </mxCell>
        <mxCell id="-R4UiotYeWdrvrbhJRBY-9" value="" style="endArrow=none;dashed=1;endFill=0;endSize=12;html=1;rounded=0;" parent="1" source="-R4UiotYeWdrvrbhJRBY-13" edge="1">
          <mxGeometry width="160" relative="1" as="geometry">
            <mxPoint x="134.78" y="300" as="sourcePoint" />
            <mxPoint x="135" y="526.2222222222222" as="targetPoint" />
          </mxGeometry>
        </mxCell>
        <mxCell id="-R4UiotYeWdrvrbhJRBY-12" value="" style="endArrow=none;dashed=1;endFill=0;endSize=12;html=1;rounded=0;" parent="1" target="-R4UiotYeWdrvrbhJRBY-13" edge="1">
          <mxGeometry width="160" relative="1" as="geometry">
            <mxPoint x="134.78" y="300" as="sourcePoint" />
            <mxPoint x="135" y="526.2222222222222" as="targetPoint" />
          </mxGeometry>
        </mxCell>
        <mxCell id="-R4UiotYeWdrvrbhJRBY-13" value="" style="html=1;points=[[0,0,0,0,5],[0,1,0,0,-5],[1,0,0,0,5],[1,1,0,0,-5]];perimeter=orthogonalPerimeter;outlineConnect=0;targetShapes=umlLifeline;portConstraint=eastwest;newEdgeStyle={&quot;curved&quot;:0,&quot;rounded&quot;:0};" parent="1" vertex="1">
          <mxGeometry x="130" y="320" width="10" height="160" as="geometry" />
        </mxCell>
        <mxCell id="-R4UiotYeWdrvrbhJRBY-15" value="&lt;u&gt;:Bot&lt;/u&gt;" style="shape=umlLifeline;perimeter=lifelinePerimeter;whiteSpace=wrap;html=1;container=1;dropTarget=0;collapsible=0;recursiveResize=0;outlineConnect=0;portConstraint=eastwest;newEdgeStyle={&quot;curved&quot;:0,&quot;rounded&quot;:0};" parent="1" vertex="1">
          <mxGeometry x="570" y="210" width="100" height="300" as="geometry" />
        </mxCell>
        <mxCell id="-R4UiotYeWdrvrbhJRBY-16" value="" style="html=1;points=[[0,0,0,0,5],[0,1,0,0,-5],[1,0,0,0,5],[1,1,0,0,-5]];perimeter=orthogonalPerimeter;outlineConnect=0;targetShapes=umlLifeline;portConstraint=eastwest;newEdgeStyle={&quot;curved&quot;:0,&quot;rounded&quot;:0};" parent="-R4UiotYeWdrvrbhJRBY-15" vertex="1">
          <mxGeometry x="45" y="110" width="10" height="160" as="geometry" />
        </mxCell>
        <mxCell id="-R4UiotYeWdrvrbhJRBY-17" value="&lt;u&gt;:AiModel&lt;/u&gt;" style="shape=umlLifeline;perimeter=lifelinePerimeter;whiteSpace=wrap;html=1;container=1;dropTarget=0;collapsible=0;recursiveResize=0;outlineConnect=0;portConstraint=eastwest;newEdgeStyle={&quot;curved&quot;:0,&quot;rounded&quot;:0};" parent="1" vertex="1">
          <mxGeometry x="830" y="210" width="100" height="300" as="geometry" />
        </mxCell>
        <mxCell id="-R4UiotYeWdrvrbhJRBY-18" value="" style="html=1;points=[[0,0,0,0,5],[0,1,0,0,-5],[1,0,0,0,5],[1,1,0,0,-5]];perimeter=orthogonalPerimeter;outlineConnect=0;targetShapes=umlLifeline;portConstraint=eastwest;newEdgeStyle={&quot;curved&quot;:0,&quot;rounded&quot;:0};" parent="-R4UiotYeWdrvrbhJRBY-17" vertex="1">
          <mxGeometry x="45" y="110" width="10" height="160" as="geometry" />
        </mxCell>
        <mxCell id="-R4UiotYeWdrvrbhJRBY-19" value="predictPrice(setOfData)" style="html=1;verticalAlign=bottom;endArrow=block;curved=0;rounded=0;" parent="1" target="-R4UiotYeWdrvrbhJRBY-14" edge="1">
          <mxGeometry width="80" relative="1" as="geometry">
            <mxPoint x="140" y="340" as="sourcePoint" />
            <mxPoint x="220" y="340" as="targetPoint" />
          </mxGeometry>
        </mxCell>
        <mxCell id="-R4UiotYeWdrvrbhJRBY-20" value="predictPrice(setOfData)" style="html=1;verticalAlign=bottom;endArrow=block;curved=0;rounded=0;" parent="1" edge="1">
          <mxGeometry width="80" relative="1" as="geometry">
            <mxPoint x="380" y="359.52" as="sourcePoint" />
            <mxPoint x="615" y="359.52" as="targetPoint" />
          </mxGeometry>
        </mxCell>
        <mxCell id="-R4UiotYeWdrvrbhJRBY-21" value="predictPrice(setOfData)" style="html=1;verticalAlign=bottom;endArrow=block;curved=0;rounded=0;entryX=-0.074;entryY=0.11;entryDx=0;entryDy=0;entryPerimeter=0;" parent="1" edge="1">
          <mxGeometry width="80" relative="1" as="geometry">
            <mxPoint x="625" y="380.00000000000006" as="sourcePoint" />
            <mxPoint x="874.26" y="380.00000000000006" as="targetPoint" />
          </mxGeometry>
        </mxCell>
        <mxCell id="-R4UiotYeWdrvrbhJRBY-22" value="Prediction result" style="html=1;verticalAlign=bottom;endArrow=block;curved=0;rounded=0;dashed=1;" parent="1" source="-R4UiotYeWdrvrbhJRBY-18" target="-R4UiotYeWdrvrbhJRBY-16" edge="1">
          <mxGeometry width="80" relative="1" as="geometry">
            <mxPoint x="870" y="400" as="sourcePoint" />
            <mxPoint x="630" y="399.52000000000004" as="targetPoint" />
          </mxGeometry>
        </mxCell>
        <mxCell id="-R4UiotYeWdrvrbhJRBY-23" value="Prediction result" style="html=1;verticalAlign=bottom;endArrow=block;curved=0;rounded=0;dashed=1;" parent="1" source="-R4UiotYeWdrvrbhJRBY-16" edge="1">
          <mxGeometry width="80" relative="1" as="geometry">
            <mxPoint x="610" y="420" as="sourcePoint" />
            <mxPoint x="380" y="420" as="targetPoint" />
          </mxGeometry>
        </mxCell>
        <mxCell id="-R4UiotYeWdrvrbhJRBY-24" value="Prediction result" style="html=1;verticalAlign=bottom;endArrow=block;curved=0;rounded=0;dashed=1;" parent="1" edge="1">
          <mxGeometry width="80" relative="1" as="geometry">
            <mxPoint x="370" y="440" as="sourcePoint" />
            <mxPoint x="140" y="440" as="targetPoint" />
          </mxGeometry>
        </mxCell>
        <mxCell id="-R4UiotYeWdrvrbhJRBY-26" value="Bot" style="shape=umlActor;verticalLabelPosition=bottom;verticalAlign=top;html=1;outlineConnect=0;" parent="1" vertex="1">
          <mxGeometry x="120" y="730" width="30" height="60" as="geometry" />
        </mxCell>
        <mxCell id="-R4UiotYeWdrvrbhJRBY-27" value="&lt;div&gt;&lt;u&gt;&amp;lt;&amp;lt;Controller&amp;gt;&amp;gt;&lt;/u&gt;&lt;/div&gt;&lt;div&gt;&lt;u&gt;:TradingHandler&lt;/u&gt;&lt;br&gt;&lt;/div&gt;" style="shape=umlLifeline;perimeter=lifelinePerimeter;whiteSpace=wrap;html=1;container=1;dropTarget=0;collapsible=0;recursiveResize=0;outlineConnect=0;portConstraint=eastwest;newEdgeStyle={&quot;curved&quot;:0,&quot;rounded&quot;:0};" parent="1" vertex="1">
          <mxGeometry x="325" y="730" width="100" height="300" as="geometry" />
        </mxCell>
        <mxCell id="-R4UiotYeWdrvrbhJRBY-28" value="" style="html=1;points=[[0,0,0,0,5],[0,1,0,0,-5],[1,0,0,0,5],[1,1,0,0,-5]];perimeter=orthogonalPerimeter;outlineConnect=0;targetShapes=umlLifeline;portConstraint=eastwest;newEdgeStyle={&quot;curved&quot;:0,&quot;rounded&quot;:0};" parent="-R4UiotYeWdrvrbhJRBY-27" vertex="1">
          <mxGeometry x="45" y="110" width="10" height="160" as="geometry" />
        </mxCell>
        <mxCell id="-R4UiotYeWdrvrbhJRBY-29" value="" style="endArrow=none;dashed=1;endFill=0;endSize=12;html=1;rounded=0;" parent="1" source="-R4UiotYeWdrvrbhJRBY-31" edge="1">
          <mxGeometry width="160" relative="1" as="geometry">
            <mxPoint x="134.78" y="820" as="sourcePoint" />
            <mxPoint x="135" y="1046.2222222222222" as="targetPoint" />
          </mxGeometry>
        </mxCell>
        <mxCell id="-R4UiotYeWdrvrbhJRBY-30" value="" style="endArrow=none;dashed=1;endFill=0;endSize=12;html=1;rounded=0;" parent="1" target="-R4UiotYeWdrvrbhJRBY-31" edge="1">
          <mxGeometry width="160" relative="1" as="geometry">
            <mxPoint x="134.78" y="820" as="sourcePoint" />
            <mxPoint x="135" y="1046.2222222222222" as="targetPoint" />
          </mxGeometry>
        </mxCell>
        <mxCell id="-R4UiotYeWdrvrbhJRBY-31" value="" style="html=1;points=[[0,0,0,0,5],[0,1,0,0,-5],[1,0,0,0,5],[1,1,0,0,-5]];perimeter=orthogonalPerimeter;outlineConnect=0;targetShapes=umlLifeline;portConstraint=eastwest;newEdgeStyle={&quot;curved&quot;:0,&quot;rounded&quot;:0};" parent="1" vertex="1">
          <mxGeometry x="130" y="840" width="10" height="160" as="geometry" />
        </mxCell>
        <mxCell id="-R4UiotYeWdrvrbhJRBY-32" value="&lt;u&gt;:Bot&lt;/u&gt;" style="shape=umlLifeline;perimeter=lifelinePerimeter;whiteSpace=wrap;html=1;container=1;dropTarget=0;collapsible=0;recursiveResize=0;outlineConnect=0;portConstraint=eastwest;newEdgeStyle={&quot;curved&quot;:0,&quot;rounded&quot;:0};" parent="1" vertex="1">
          <mxGeometry x="570" y="730" width="100" height="300" as="geometry" />
        </mxCell>
        <mxCell id="-R4UiotYeWdrvrbhJRBY-33" value="" style="html=1;points=[[0,0,0,0,5],[0,1,0,0,-5],[1,0,0,0,5],[1,1,0,0,-5]];perimeter=orthogonalPerimeter;outlineConnect=0;targetShapes=umlLifeline;portConstraint=eastwest;newEdgeStyle={&quot;curved&quot;:0,&quot;rounded&quot;:0};" parent="-R4UiotYeWdrvrbhJRBY-32" vertex="1">
          <mxGeometry x="45" y="110" width="10" height="160" as="geometry" />
        </mxCell>
        <mxCell id="-R4UiotYeWdrvrbhJRBY-34" value="&lt;u&gt;:Transaction&lt;br&gt;&lt;/u&gt;" style="shape=umlLifeline;perimeter=lifelinePerimeter;whiteSpace=wrap;html=1;container=1;dropTarget=0;collapsible=0;recursiveResize=0;outlineConnect=0;portConstraint=eastwest;newEdgeStyle={&quot;curved&quot;:0,&quot;rounded&quot;:0};" parent="1" vertex="1">
          <mxGeometry x="830" y="730" width="100" height="300" as="geometry" />
        </mxCell>
        <mxCell id="-R4UiotYeWdrvrbhJRBY-35" value="" style="html=1;points=[[0,0,0,0,5],[0,1,0,0,-5],[1,0,0,0,5],[1,1,0,0,-5]];perimeter=orthogonalPerimeter;outlineConnect=0;targetShapes=umlLifeline;portConstraint=eastwest;newEdgeStyle={&quot;curved&quot;:0,&quot;rounded&quot;:0};" parent="-R4UiotYeWdrvrbhJRBY-34" vertex="1">
          <mxGeometry x="45" y="110" width="10" height="160" as="geometry" />
        </mxCell>
        <mxCell id="-R4UiotYeWdrvrbhJRBY-36" value="buyStock(symbol,companyName,quantity)" style="html=1;verticalAlign=bottom;endArrow=block;curved=0;rounded=0;" parent="1" target="-R4UiotYeWdrvrbhJRBY-28" edge="1">
          <mxGeometry width="80" relative="1" as="geometry">
            <mxPoint x="140" y="860" as="sourcePoint" />
            <mxPoint x="220" y="860" as="targetPoint" />
          </mxGeometry>
        </mxCell>
        <mxCell id="-R4UiotYeWdrvrbhJRBY-37" value="buyStock(symbol,companyName,quantity)" style="html=1;verticalAlign=bottom;endArrow=block;curved=0;rounded=0;" parent="1" edge="1">
          <mxGeometry width="80" relative="1" as="geometry">
            <mxPoint x="380" y="879.52" as="sourcePoint" />
            <mxPoint x="615" y="879.52" as="targetPoint" />
          </mxGeometry>
        </mxCell>
        <mxCell id="-R4UiotYeWdrvrbhJRBY-38" value="buyStock(symbol,companyName,quantity)" style="html=1;verticalAlign=bottom;endArrow=block;curved=0;rounded=0;entryX=-0.074;entryY=0.11;entryDx=0;entryDy=0;entryPerimeter=0;" parent="1" edge="1">
          <mxGeometry width="80" relative="1" as="geometry">
            <mxPoint x="625" y="900" as="sourcePoint" />
            <mxPoint x="874.26" y="900" as="targetPoint" />
          </mxGeometry>
        </mxCell>
        <mxCell id="-R4UiotYeWdrvrbhJRBY-39" value="Transaction receipt" style="html=1;verticalAlign=bottom;endArrow=block;curved=0;rounded=0;dashed=1;" parent="1" source="-R4UiotYeWdrvrbhJRBY-35" target="-R4UiotYeWdrvrbhJRBY-33" edge="1">
          <mxGeometry width="80" relative="1" as="geometry">
            <mxPoint x="870" y="920" as="sourcePoint" />
            <mxPoint x="630" y="919.52" as="targetPoint" />
          </mxGeometry>
        </mxCell>
        <mxCell id="-R4UiotYeWdrvrbhJRBY-40" value="Transaction confirmed" style="html=1;verticalAlign=bottom;endArrow=block;curved=0;rounded=0;dashed=1;" parent="1" source="-R4UiotYeWdrvrbhJRBY-33" edge="1">
          <mxGeometry width="80" relative="1" as="geometry">
            <mxPoint x="610" y="940" as="sourcePoint" />
            <mxPoint x="380" y="940" as="targetPoint" />
          </mxGeometry>
        </mxCell>
        <mxCell id="-R4UiotYeWdrvrbhJRBY-41" value="Transaction confirmed" style="html=1;verticalAlign=bottom;endArrow=block;curved=0;rounded=0;dashed=1;" parent="1" edge="1">
          <mxGeometry width="80" relative="1" as="geometry">
            <mxPoint x="370" y="960" as="sourcePoint" />
            <mxPoint x="140" y="960" as="targetPoint" />
          </mxGeometry>
        </mxCell>
        <mxCell id="-R4UiotYeWdrvrbhJRBY-42" value="Bot" style="shape=umlActor;verticalLabelPosition=bottom;verticalAlign=top;html=1;outlineConnect=0;" parent="1" vertex="1">
          <mxGeometry x="1130" y="193.77999999999997" width="30" height="60" as="geometry" />
        </mxCell>
        <mxCell id="-R4UiotYeWdrvrbhJRBY-43" value="&lt;div&gt;&lt;u&gt;&amp;lt;&amp;lt;Controller&amp;gt;&amp;gt;&lt;/u&gt;&lt;/div&gt;&lt;div&gt;&lt;u&gt;:TradingHandler&lt;/u&gt;&lt;br&gt;&lt;/div&gt;" style="shape=umlLifeline;perimeter=lifelinePerimeter;whiteSpace=wrap;html=1;container=1;dropTarget=0;collapsible=0;recursiveResize=0;outlineConnect=0;portConstraint=eastwest;newEdgeStyle={&quot;curved&quot;:0,&quot;rounded&quot;:0};" parent="1" vertex="1">
          <mxGeometry x="1335" y="193.77999999999997" width="100" height="300" as="geometry" />
        </mxCell>
        <mxCell id="-R4UiotYeWdrvrbhJRBY-44" value="" style="html=1;points=[[0,0,0,0,5],[0,1,0,0,-5],[1,0,0,0,5],[1,1,0,0,-5]];perimeter=orthogonalPerimeter;outlineConnect=0;targetShapes=umlLifeline;portConstraint=eastwest;newEdgeStyle={&quot;curved&quot;:0,&quot;rounded&quot;:0};" parent="-R4UiotYeWdrvrbhJRBY-43" vertex="1">
          <mxGeometry x="45" y="110" width="10" height="160" as="geometry" />
        </mxCell>
        <mxCell id="-R4UiotYeWdrvrbhJRBY-45" value="" style="endArrow=none;dashed=1;endFill=0;endSize=12;html=1;rounded=0;" parent="1" source="-R4UiotYeWdrvrbhJRBY-47" edge="1">
          <mxGeometry width="160" relative="1" as="geometry">
            <mxPoint x="1144.78" y="283.78" as="sourcePoint" />
            <mxPoint x="1145" y="510.00222222222214" as="targetPoint" />
          </mxGeometry>
        </mxCell>
        <mxCell id="-R4UiotYeWdrvrbhJRBY-46" value="" style="endArrow=none;dashed=1;endFill=0;endSize=12;html=1;rounded=0;" parent="1" target="-R4UiotYeWdrvrbhJRBY-47" edge="1">
          <mxGeometry width="160" relative="1" as="geometry">
            <mxPoint x="1144.78" y="283.78" as="sourcePoint" />
            <mxPoint x="1145" y="510.00222222222214" as="targetPoint" />
          </mxGeometry>
        </mxCell>
        <mxCell id="-R4UiotYeWdrvrbhJRBY-47" value="" style="html=1;points=[[0,0,0,0,5],[0,1,0,0,-5],[1,0,0,0,5],[1,1,0,0,-5]];perimeter=orthogonalPerimeter;outlineConnect=0;targetShapes=umlLifeline;portConstraint=eastwest;newEdgeStyle={&quot;curved&quot;:0,&quot;rounded&quot;:0};" parent="1" vertex="1">
          <mxGeometry x="1140" y="303.78" width="10" height="160" as="geometry" />
        </mxCell>
        <mxCell id="-R4UiotYeWdrvrbhJRBY-48" value="&lt;u&gt;:Bot&lt;/u&gt;" style="shape=umlLifeline;perimeter=lifelinePerimeter;whiteSpace=wrap;html=1;container=1;dropTarget=0;collapsible=0;recursiveResize=0;outlineConnect=0;portConstraint=eastwest;newEdgeStyle={&quot;curved&quot;:0,&quot;rounded&quot;:0};" parent="1" vertex="1">
          <mxGeometry x="1580" y="193.77999999999997" width="100" height="300" as="geometry" />
        </mxCell>
        <mxCell id="-R4UiotYeWdrvrbhJRBY-49" value="" style="html=1;points=[[0,0,0,0,5],[0,1,0,0,-5],[1,0,0,0,5],[1,1,0,0,-5]];perimeter=orthogonalPerimeter;outlineConnect=0;targetShapes=umlLifeline;portConstraint=eastwest;newEdgeStyle={&quot;curved&quot;:0,&quot;rounded&quot;:0};" parent="-R4UiotYeWdrvrbhJRBY-48" vertex="1">
          <mxGeometry x="45" y="110" width="10" height="160" as="geometry" />
        </mxCell>
        <mxCell id="-R4UiotYeWdrvrbhJRBY-50" value="&lt;u&gt;:Portfolio&lt;br&gt;&lt;/u&gt;" style="shape=umlLifeline;perimeter=lifelinePerimeter;whiteSpace=wrap;html=1;container=1;dropTarget=0;collapsible=0;recursiveResize=0;outlineConnect=0;portConstraint=eastwest;newEdgeStyle={&quot;curved&quot;:0,&quot;rounded&quot;:0};" parent="1" vertex="1">
          <mxGeometry x="1840" y="193.77999999999997" width="100" height="300" as="geometry" />
        </mxCell>
        <mxCell id="-R4UiotYeWdrvrbhJRBY-51" value="" style="html=1;points=[[0,0,0,0,5],[0,1,0,0,-5],[1,0,0,0,5],[1,1,0,0,-5]];perimeter=orthogonalPerimeter;outlineConnect=0;targetShapes=umlLifeline;portConstraint=eastwest;newEdgeStyle={&quot;curved&quot;:0,&quot;rounded&quot;:0};" parent="-R4UiotYeWdrvrbhJRBY-50" vertex="1">
          <mxGeometry x="45" y="110" width="10" height="160" as="geometry" />
        </mxCell>
        <mxCell id="-R4UiotYeWdrvrbhJRBY-52" value="sellStock(symbol,companyName,quantity)" style="html=1;verticalAlign=bottom;endArrow=block;curved=0;rounded=0;" parent="1" target="-R4UiotYeWdrvrbhJRBY-44" edge="1">
          <mxGeometry width="80" relative="1" as="geometry">
            <mxPoint x="1150" y="323.78" as="sourcePoint" />
            <mxPoint x="1230" y="323.78" as="targetPoint" />
          </mxGeometry>
        </mxCell>
        <mxCell id="-R4UiotYeWdrvrbhJRBY-53" value="sellStock(symbol,companyName,quantity)" style="html=1;verticalAlign=bottom;endArrow=block;curved=0;rounded=0;" parent="1" edge="1">
          <mxGeometry width="80" relative="1" as="geometry">
            <mxPoint x="1390" y="343.29999999999995" as="sourcePoint" />
            <mxPoint x="1625" y="343.29999999999995" as="targetPoint" />
          </mxGeometry>
        </mxCell>
        <mxCell id="-R4UiotYeWdrvrbhJRBY-54" value="sellStock(symbol,companyName,quantity)" style="html=1;verticalAlign=bottom;endArrow=block;curved=0;rounded=0;entryX=-0.074;entryY=0.11;entryDx=0;entryDy=0;entryPerimeter=0;" parent="1" edge="1">
          <mxGeometry width="80" relative="1" as="geometry">
            <mxPoint x="1635" y="363.78" as="sourcePoint" />
            <mxPoint x="1884.26" y="363.78" as="targetPoint" />
          </mxGeometry>
        </mxCell>
        <mxCell id="-R4UiotYeWdrvrbhJRBY-55" value="Transaction receipt" style="html=1;verticalAlign=bottom;endArrow=block;curved=0;rounded=0;dashed=1;" parent="1" source="-R4UiotYeWdrvrbhJRBY-51" target="-R4UiotYeWdrvrbhJRBY-49" edge="1">
          <mxGeometry width="80" relative="1" as="geometry">
            <mxPoint x="1880" y="383.78" as="sourcePoint" />
            <mxPoint x="1640" y="383.29999999999995" as="targetPoint" />
          </mxGeometry>
        </mxCell>
        <mxCell id="-R4UiotYeWdrvrbhJRBY-56" value="Transaction confirmed" style="html=1;verticalAlign=bottom;endArrow=block;curved=0;rounded=0;dashed=1;" parent="1" source="-R4UiotYeWdrvrbhJRBY-49" edge="1">
          <mxGeometry width="80" relative="1" as="geometry">
            <mxPoint x="1620" y="403.78" as="sourcePoint" />
            <mxPoint x="1390" y="403.78" as="targetPoint" />
          </mxGeometry>
        </mxCell>
        <mxCell id="-R4UiotYeWdrvrbhJRBY-57" value="Transaction confirmed" style="html=1;verticalAlign=bottom;endArrow=block;curved=0;rounded=0;dashed=1;" parent="1" edge="1">
          <mxGeometry width="80" relative="1" as="geometry">
            <mxPoint x="1380" y="423.78" as="sourcePoint" />
            <mxPoint x="1150" y="423.78" as="targetPoint" />
          </mxGeometry>
        </mxCell>
        <mxCell id="-R4UiotYeWdrvrbhJRBY-58" value="User" style="shape=umlActor;verticalLabelPosition=bottom;verticalAlign=top;html=1;outlineConnect=0;" parent="1" vertex="1">
          <mxGeometry x="1150" y="713.78" width="30" height="60" as="geometry" />
        </mxCell>
        <mxCell id="-R4UiotYeWdrvrbhJRBY-59" value="&lt;div&gt;&lt;u&gt;&amp;lt;&amp;lt;Controller&amp;gt;&amp;gt;&lt;/u&gt;&lt;/div&gt;&lt;div&gt;&lt;u&gt;:TradingHandler&lt;/u&gt;&lt;br&gt;&lt;/div&gt;" style="shape=umlLifeline;perimeter=lifelinePerimeter;whiteSpace=wrap;html=1;container=1;dropTarget=0;collapsible=0;recursiveResize=0;outlineConnect=0;portConstraint=eastwest;newEdgeStyle={&quot;curved&quot;:0,&quot;rounded&quot;:0};" parent="1" vertex="1">
          <mxGeometry x="1320" y="713.78" width="100" height="300" as="geometry" />
        </mxCell>
        <mxCell id="-R4UiotYeWdrvrbhJRBY-60" value="" style="html=1;points=[[0,0,0,0,5],[0,1,0,0,-5],[1,0,0,0,5],[1,1,0,0,-5]];perimeter=orthogonalPerimeter;outlineConnect=0;targetShapes=umlLifeline;portConstraint=eastwest;newEdgeStyle={&quot;curved&quot;:0,&quot;rounded&quot;:0};" parent="-R4UiotYeWdrvrbhJRBY-59" vertex="1">
          <mxGeometry x="45" y="110" width="10" height="160" as="geometry" />
        </mxCell>
        <mxCell id="-R4UiotYeWdrvrbhJRBY-61" value="" style="endArrow=none;dashed=1;endFill=0;endSize=12;html=1;rounded=0;" parent="1" source="-R4UiotYeWdrvrbhJRBY-63" edge="1">
          <mxGeometry width="160" relative="1" as="geometry">
            <mxPoint x="1164.78" y="803.78" as="sourcePoint" />
            <mxPoint x="1165" y="1030.0022222222221" as="targetPoint" />
          </mxGeometry>
        </mxCell>
        <mxCell id="-R4UiotYeWdrvrbhJRBY-62" value="" style="endArrow=none;dashed=1;endFill=0;endSize=12;html=1;rounded=0;" parent="1" target="-R4UiotYeWdrvrbhJRBY-63" edge="1">
          <mxGeometry width="160" relative="1" as="geometry">
            <mxPoint x="1164.78" y="803.78" as="sourcePoint" />
            <mxPoint x="1165" y="1030.0022222222221" as="targetPoint" />
          </mxGeometry>
        </mxCell>
        <mxCell id="-R4UiotYeWdrvrbhJRBY-63" value="" style="html=1;points=[[0,0,0,0,5],[0,1,0,0,-5],[1,0,0,0,5],[1,1,0,0,-5]];perimeter=orthogonalPerimeter;outlineConnect=0;targetShapes=umlLifeline;portConstraint=eastwest;newEdgeStyle={&quot;curved&quot;:0,&quot;rounded&quot;:0};" parent="1" vertex="1">
          <mxGeometry x="1160" y="823.78" width="10" height="160" as="geometry" />
        </mxCell>
        <mxCell id="-R4UiotYeWdrvrbhJRBY-64" value="&lt;u&gt;:User&lt;/u&gt;" style="shape=umlLifeline;perimeter=lifelinePerimeter;whiteSpace=wrap;html=1;container=1;dropTarget=0;collapsible=0;recursiveResize=0;outlineConnect=0;portConstraint=eastwest;newEdgeStyle={&quot;curved&quot;:0,&quot;rounded&quot;:0};" parent="1" vertex="1">
          <mxGeometry x="1500" y="713.78" width="100" height="300" as="geometry" />
        </mxCell>
        <mxCell id="-R4UiotYeWdrvrbhJRBY-65" value="" style="html=1;points=[[0,0,0,0,5],[0,1,0,0,-5],[1,0,0,0,5],[1,1,0,0,-5]];perimeter=orthogonalPerimeter;outlineConnect=0;targetShapes=umlLifeline;portConstraint=eastwest;newEdgeStyle={&quot;curved&quot;:0,&quot;rounded&quot;:0};" parent="-R4UiotYeWdrvrbhJRBY-64" vertex="1">
          <mxGeometry x="45" y="110" width="10" height="160" as="geometry" />
        </mxCell>
        <mxCell id="-R4UiotYeWdrvrbhJRBY-66" value="&lt;u&gt;:Bot&lt;br&gt;&lt;/u&gt;" style="shape=umlLifeline;perimeter=lifelinePerimeter;whiteSpace=wrap;html=1;container=1;dropTarget=0;collapsible=0;recursiveResize=0;outlineConnect=0;portConstraint=eastwest;newEdgeStyle={&quot;curved&quot;:0,&quot;rounded&quot;:0};" parent="1" vertex="1">
          <mxGeometry x="1680" y="713.78" width="100" height="300" as="geometry" />
        </mxCell>
        <mxCell id="-R4UiotYeWdrvrbhJRBY-67" value="" style="html=1;points=[[0,0,0,0,5],[0,1,0,0,-5],[1,0,0,0,5],[1,1,0,0,-5]];perimeter=orthogonalPerimeter;outlineConnect=0;targetShapes=umlLifeline;portConstraint=eastwest;newEdgeStyle={&quot;curved&quot;:0,&quot;rounded&quot;:0};" parent="-R4UiotYeWdrvrbhJRBY-66" vertex="1">
          <mxGeometry x="45" y="110" width="10" height="160" as="geometry" />
        </mxCell>
        <mxCell id="-R4UiotYeWdrvrbhJRBY-68" value="&lt;div&gt;getSuggestion(symbol,&lt;/div&gt;&lt;div&gt;companyName,&lt;/div&gt;&lt;div&gt;suggestionType)&lt;/div&gt;" style="html=1;verticalAlign=bottom;endArrow=block;curved=0;rounded=0;" parent="1" target="-R4UiotYeWdrvrbhJRBY-60" edge="1">
          <mxGeometry width="80" relative="1" as="geometry">
            <mxPoint x="1170" y="843.78" as="sourcePoint" />
            <mxPoint x="1250" y="843.78" as="targetPoint" />
          </mxGeometry>
        </mxCell>
        <mxCell id="-R4UiotYeWdrvrbhJRBY-69" value="&lt;div&gt;getSuggestion(symbol&lt;/div&gt;&lt;div&gt;,companyName,&lt;/div&gt;&lt;div&gt;suggestionType)&lt;/div&gt;" style="html=1;verticalAlign=bottom;endArrow=block;curved=0;rounded=0;" parent="1" target="-R4UiotYeWdrvrbhJRBY-65" edge="1">
          <mxGeometry width="80" relative="1" as="geometry">
            <mxPoint x="1375" y="863.4499999999999" as="sourcePoint" />
            <mxPoint x="1660" y="863.4499999999998" as="targetPoint" />
          </mxGeometry>
        </mxCell>
        <mxCell id="-R4UiotYeWdrvrbhJRBY-70" value="&lt;div&gt;generateSuggestion(symbol,&lt;/div&gt;&lt;div&gt;companyName,&lt;/div&gt;&lt;div&gt;suggestionType)&lt;/div&gt;" style="html=1;verticalAlign=bottom;endArrow=block;curved=0;rounded=0;exitX=1.162;exitY=0.349;exitDx=0;exitDy=0;exitPerimeter=0;" parent="1" source="-R4UiotYeWdrvrbhJRBY-65" target="-R4UiotYeWdrvrbhJRBY-67" edge="1">
          <mxGeometry width="80" relative="1" as="geometry">
            <mxPoint x="1790" y="879.8299999999999" as="sourcePoint" />
            <mxPoint x="2039.26" y="879.8299999999999" as="targetPoint" />
          </mxGeometry>
        </mxCell>
        <mxCell id="-R4UiotYeWdrvrbhJRBY-71" value="Suggestion answer" style="html=1;verticalAlign=bottom;endArrow=block;curved=0;rounded=0;dashed=1;" parent="1" edge="1">
          <mxGeometry width="80" relative="1" as="geometry">
            <mxPoint x="1725.0000000000002" y="950" as="sourcePoint" />
            <mxPoint x="1555.0000000000002" y="950" as="targetPoint" />
          </mxGeometry>
        </mxCell>
        <mxCell id="-R4UiotYeWdrvrbhJRBY-72" value="Suggestion answer" style="html=1;verticalAlign=bottom;endArrow=block;curved=0;rounded=0;dashed=1;" parent="1" edge="1">
          <mxGeometry width="80" relative="1" as="geometry">
            <mxPoint x="1545.0000000000002" y="960" as="sourcePoint" />
            <mxPoint x="1375" y="960" as="targetPoint" />
          </mxGeometry>
        </mxCell>
        <mxCell id="-R4UiotYeWdrvrbhJRBY-73" value="Suggestion answer" style="html=1;verticalAlign=bottom;endArrow=block;curved=0;rounded=0;dashed=1;" parent="1" edge="1">
          <mxGeometry width="80" relative="1" as="geometry">
            <mxPoint x="1360" y="970" as="sourcePoint" />
            <mxPoint x="1170" y="970" as="targetPoint" />
          </mxGeometry>
        </mxCell>
        <mxCell id="-R4UiotYeWdrvrbhJRBY-76" value="&lt;u&gt;:Suggestion&lt;br&gt;&lt;/u&gt;" style="shape=umlLifeline;perimeter=lifelinePerimeter;whiteSpace=wrap;html=1;container=1;dropTarget=0;collapsible=0;recursiveResize=0;outlineConnect=0;portConstraint=eastwest;newEdgeStyle={&quot;curved&quot;:0,&quot;rounded&quot;:0};" parent="1" vertex="1">
          <mxGeometry x="1870" y="713.78" width="100" height="300" as="geometry" />
        </mxCell>
        <mxCell id="-R4UiotYeWdrvrbhJRBY-77" value="" style="html=1;points=[[0,0,0,0,5],[0,1,0,0,-5],[1,0,0,0,5],[1,1,0,0,-5]];perimeter=orthogonalPerimeter;outlineConnect=0;targetShapes=umlLifeline;portConstraint=eastwest;newEdgeStyle={&quot;curved&quot;:0,&quot;rounded&quot;:0};" parent="-R4UiotYeWdrvrbhJRBY-76" vertex="1">
          <mxGeometry x="45" y="110" width="10" height="160" as="geometry" />
        </mxCell>
        <mxCell id="-R4UiotYeWdrvrbhJRBY-78" value="&lt;div&gt;generateSuggestion(symbol,&lt;/div&gt;&lt;div&gt;companyName,&lt;/div&gt;&lt;div&gt;suggestionType)&lt;/div&gt;" style="html=1;verticalAlign=bottom;endArrow=block;curved=0;rounded=0;exitX=1.5;exitY=0.414;exitDx=0;exitDy=0;exitPerimeter=0;" parent="1" source="-R4UiotYeWdrvrbhJRBY-67" target="-R4UiotYeWdrvrbhJRBY-77" edge="1">
          <mxGeometry width="80" relative="1" as="geometry">
            <mxPoint x="1930" y="890" as="sourcePoint" />
            <mxPoint x="2160" y="890" as="targetPoint" />
          </mxGeometry>
        </mxCell>
        <mxCell id="-R4UiotYeWdrvrbhJRBY-79" value="Suggestion answer" style="html=1;verticalAlign=bottom;endArrow=block;curved=0;rounded=0;dashed=1;" parent="1" edge="1">
          <mxGeometry width="80" relative="1" as="geometry">
            <mxPoint x="1910" y="940" as="sourcePoint" />
            <mxPoint x="1740.0000000000002" y="940" as="targetPoint" />
          </mxGeometry>
        </mxCell>
        <mxCell id="-R4UiotYeWdrvrbhJRBY-81" value="User" style="shape=umlActor;verticalLabelPosition=bottom;verticalAlign=top;html=1;outlineConnect=0;" parent="1" vertex="1">
          <mxGeometry x="65" y="1140" width="30" height="60" as="geometry" />
        </mxCell>
        <mxCell id="-R4UiotYeWdrvrbhJRBY-82" value="&lt;div&gt;&lt;u&gt;&amp;lt;&amp;lt;Controller&amp;gt;&amp;gt;&lt;/u&gt;&lt;/div&gt;&lt;div&gt;&lt;u&gt;:TradingHandler&lt;/u&gt;&lt;br&gt;&lt;/div&gt;" style="shape=umlLifeline;perimeter=lifelinePerimeter;whiteSpace=wrap;html=1;container=1;dropTarget=0;collapsible=0;recursiveResize=0;outlineConnect=0;portConstraint=eastwest;newEdgeStyle={&quot;curved&quot;:0,&quot;rounded&quot;:0};" parent="1" vertex="1">
          <mxGeometry x="235" y="1140" width="100" height="300" as="geometry" />
        </mxCell>
        <mxCell id="-R4UiotYeWdrvrbhJRBY-83" value="" style="html=1;points=[[0,0,0,0,5],[0,1,0,0,-5],[1,0,0,0,5],[1,1,0,0,-5]];perimeter=orthogonalPerimeter;outlineConnect=0;targetShapes=umlLifeline;portConstraint=eastwest;newEdgeStyle={&quot;curved&quot;:0,&quot;rounded&quot;:0};" parent="-R4UiotYeWdrvrbhJRBY-82" vertex="1">
          <mxGeometry x="45" y="110" width="10" height="160" as="geometry" />
        </mxCell>
        <mxCell id="-R4UiotYeWdrvrbhJRBY-84" value="" style="endArrow=none;dashed=1;endFill=0;endSize=12;html=1;rounded=0;" parent="1" source="-R4UiotYeWdrvrbhJRBY-86" edge="1">
          <mxGeometry width="160" relative="1" as="geometry">
            <mxPoint x="79.77999999999997" y="1230" as="sourcePoint" />
            <mxPoint x="80" y="1456.2222222222222" as="targetPoint" />
          </mxGeometry>
        </mxCell>
        <mxCell id="-R4UiotYeWdrvrbhJRBY-85" value="" style="endArrow=none;dashed=1;endFill=0;endSize=12;html=1;rounded=0;" parent="1" target="-R4UiotYeWdrvrbhJRBY-86" edge="1">
          <mxGeometry width="160" relative="1" as="geometry">
            <mxPoint x="79.77999999999997" y="1230" as="sourcePoint" />
            <mxPoint x="80" y="1456.2222222222222" as="targetPoint" />
          </mxGeometry>
        </mxCell>
        <mxCell id="-R4UiotYeWdrvrbhJRBY-86" value="" style="html=1;points=[[0,0,0,0,5],[0,1,0,0,-5],[1,0,0,0,5],[1,1,0,0,-5]];perimeter=orthogonalPerimeter;outlineConnect=0;targetShapes=umlLifeline;portConstraint=eastwest;newEdgeStyle={&quot;curved&quot;:0,&quot;rounded&quot;:0};" parent="1" vertex="1">
          <mxGeometry x="75" y="1250" width="10" height="160" as="geometry" />
        </mxCell>
        <mxCell id="-R4UiotYeWdrvrbhJRBY-87" value="&lt;u&gt;:User&lt;/u&gt;" style="shape=umlLifeline;perimeter=lifelinePerimeter;whiteSpace=wrap;html=1;container=1;dropTarget=0;collapsible=0;recursiveResize=0;outlineConnect=0;portConstraint=eastwest;newEdgeStyle={&quot;curved&quot;:0,&quot;rounded&quot;:0};" parent="1" vertex="1">
          <mxGeometry x="535" y="1140" width="100" height="300" as="geometry" />
        </mxCell>
        <mxCell id="-R4UiotYeWdrvrbhJRBY-88" value="" style="html=1;points=[[0,0,0,0,5],[0,1,0,0,-5],[1,0,0,0,5],[1,1,0,0,-5]];perimeter=orthogonalPerimeter;outlineConnect=0;targetShapes=umlLifeline;portConstraint=eastwest;newEdgeStyle={&quot;curved&quot;:0,&quot;rounded&quot;:0};" parent="-R4UiotYeWdrvrbhJRBY-87" vertex="1">
          <mxGeometry x="45" y="110" width="10" height="160" as="geometry" />
        </mxCell>
        <mxCell id="-R4UiotYeWdrvrbhJRBY-91" value="viewReport(botId,period)" style="html=1;verticalAlign=bottom;endArrow=block;curved=0;rounded=0;" parent="1" target="-R4UiotYeWdrvrbhJRBY-83" edge="1">
          <mxGeometry width="80" relative="1" as="geometry">
            <mxPoint x="85" y="1270" as="sourcePoint" />
            <mxPoint x="165" y="1270" as="targetPoint" />
          </mxGeometry>
        </mxCell>
        <mxCell id="-R4UiotYeWdrvrbhJRBY-92" value="viewReport(botId,period)" style="html=1;verticalAlign=bottom;endArrow=block;curved=0;rounded=0;" parent="1" target="-R4UiotYeWdrvrbhJRBY-88" edge="1">
          <mxGeometry width="80" relative="1" as="geometry">
            <mxPoint x="290" y="1289.67" as="sourcePoint" />
            <mxPoint x="575" y="1289.6699999999998" as="targetPoint" />
          </mxGeometry>
        </mxCell>
        <mxCell id="-R4UiotYeWdrvrbhJRBY-93" value="getReport(reoprtId)" style="html=1;verticalAlign=bottom;endArrow=block;curved=0;rounded=0;exitX=1.162;exitY=0.349;exitDx=0;exitDy=0;exitPerimeter=0;" parent="1" source="-R4UiotYeWdrvrbhJRBY-88" target="-R4UiotYeWdrvrbhJRBY-98" edge="1">
          <mxGeometry width="80" relative="1" as="geometry">
            <mxPoint x="705" y="1306.05" as="sourcePoint" />
            <mxPoint x="830" y="1305.8400000000001" as="targetPoint" />
          </mxGeometry>
        </mxCell>
        <mxCell id="-R4UiotYeWdrvrbhJRBY-94" value="Report" style="html=1;verticalAlign=bottom;endArrow=block;curved=0;rounded=0;dashed=1;" parent="1" edge="1">
          <mxGeometry width="80" relative="1" as="geometry">
            <mxPoint x="835" y="1390" as="sourcePoint" />
            <mxPoint x="590" y="1390" as="targetPoint" />
          </mxGeometry>
        </mxCell>
        <mxCell id="-R4UiotYeWdrvrbhJRBY-95" value="Report" style="html=1;verticalAlign=bottom;endArrow=block;curved=0;rounded=0;dashed=1;" parent="1" edge="1">
          <mxGeometry width="80" relative="1" as="geometry">
            <mxPoint x="580" y="1400" as="sourcePoint" />
            <mxPoint x="290" y="1400" as="targetPoint" />
          </mxGeometry>
        </mxCell>
        <mxCell id="-R4UiotYeWdrvrbhJRBY-96" value="Report" style="html=1;verticalAlign=bottom;endArrow=block;curved=0;rounded=0;dashed=1;" parent="1" edge="1">
          <mxGeometry width="80" relative="1" as="geometry">
            <mxPoint x="275" y="1400" as="sourcePoint" />
            <mxPoint x="85" y="1400" as="targetPoint" />
          </mxGeometry>
        </mxCell>
        <mxCell id="-R4UiotYeWdrvrbhJRBY-97" value="&lt;u&gt;:Bot&lt;br&gt;&lt;/u&gt;" style="shape=umlLifeline;perimeter=lifelinePerimeter;whiteSpace=wrap;html=1;container=1;dropTarget=0;collapsible=0;recursiveResize=0;outlineConnect=0;portConstraint=eastwest;newEdgeStyle={&quot;curved&quot;:0,&quot;rounded&quot;:0};" parent="1" vertex="1">
          <mxGeometry x="790" y="1140" width="100" height="300" as="geometry" />
        </mxCell>
        <mxCell id="-R4UiotYeWdrvrbhJRBY-98" value="" style="html=1;points=[[0,0,0,0,5],[0,1,0,0,-5],[1,0,0,0,5],[1,1,0,0,-5]];perimeter=orthogonalPerimeter;outlineConnect=0;targetShapes=umlLifeline;portConstraint=eastwest;newEdgeStyle={&quot;curved&quot;:0,&quot;rounded&quot;:0};" parent="-R4UiotYeWdrvrbhJRBY-97" vertex="1">
          <mxGeometry x="45" y="110" width="10" height="160" as="geometry" />
        </mxCell>
        <mxCell id="-R4UiotYeWdrvrbhJRBY-102" value="" style="shape=datastore;whiteSpace=wrap;html=1;" parent="1" vertex="1">
          <mxGeometry x="1240" y="1131.89" width="60" height="60" as="geometry" />
        </mxCell>
        <mxCell id="-R4UiotYeWdrvrbhJRBY-107" value="" style="endArrow=none;dashed=1;endFill=0;endSize=12;html=1;rounded=0;" parent="1" source="-R4UiotYeWdrvrbhJRBY-109" edge="1">
          <mxGeometry width="160" relative="1" as="geometry">
            <mxPoint x="1269.78" y="1221.89" as="sourcePoint" />
            <mxPoint x="1270" y="1448.1122222222223" as="targetPoint" />
          </mxGeometry>
        </mxCell>
        <mxCell id="-R4UiotYeWdrvrbhJRBY-108" value="" style="endArrow=none;dashed=1;endFill=0;endSize=12;html=1;rounded=0;" parent="1" target="-R4UiotYeWdrvrbhJRBY-109" edge="1">
          <mxGeometry width="160" relative="1" as="geometry">
            <mxPoint x="1269.78" y="1221.89" as="sourcePoint" />
            <mxPoint x="1270" y="1448.1122222222223" as="targetPoint" />
          </mxGeometry>
        </mxCell>
        <mxCell id="-R4UiotYeWdrvrbhJRBY-109" value="" style="html=1;points=[[0,0,0,0,5],[0,1,0,0,-5],[1,0,0,0,5],[1,1,0,0,-5]];perimeter=orthogonalPerimeter;outlineConnect=0;targetShapes=umlLifeline;portConstraint=eastwest;newEdgeStyle={&quot;curved&quot;:0,&quot;rounded&quot;:0};" parent="1" vertex="1">
          <mxGeometry x="1265" y="1241.89" width="10" height="160" as="geometry" />
        </mxCell>
        <mxCell id="-R4UiotYeWdrvrbhJRBY-110" value="&lt;u&gt;:Database&lt;/u&gt;" style="text;html=1;align=center;verticalAlign=middle;resizable=0;points=[];autosize=1;strokeColor=none;fillColor=none;" parent="1" vertex="1">
          <mxGeometry x="1230" y="1191.89" width="80" height="30" as="geometry" />
        </mxCell>
        <mxCell id="-R4UiotYeWdrvrbhJRBY-111" value="getReport(reportId)" style="html=1;verticalAlign=bottom;endArrow=block;curved=0;rounded=0;exitX=1.5;exitY=0.414;exitDx=0;exitDy=0;exitPerimeter=0;" parent="1" target="2tVGv0uhPfWlnNjPmABv-18" edge="1">
          <mxGeometry width="80" relative="1" as="geometry">
            <mxPoint x="845" y="1339.66" as="sourcePoint" />
            <mxPoint x="1090" y="1340" as="targetPoint" />
          </mxGeometry>
        </mxCell>
        <mxCell id="-R4UiotYeWdrvrbhJRBY-112" value="Report" style="html=1;verticalAlign=bottom;endArrow=block;curved=0;rounded=0;dashed=1;" parent="1" edge="1">
          <mxGeometry width="80" relative="1" as="geometry">
            <mxPoint x="1095" y="1380" as="sourcePoint" />
            <mxPoint x="850" y="1380" as="targetPoint" />
          </mxGeometry>
        </mxCell>
        <mxCell id="-R4UiotYeWdrvrbhJRBY-113" value="Admin" style="shape=umlActor;verticalLabelPosition=bottom;verticalAlign=top;html=1;outlineConnect=0;" parent="1" vertex="1">
          <mxGeometry x="1480" y="1156.22" width="30" height="60" as="geometry" />
        </mxCell>
        <mxCell id="-R4UiotYeWdrvrbhJRBY-114" value="&lt;div&gt;&lt;u&gt;&amp;lt;&amp;lt;Controller&amp;gt;&amp;gt;&lt;/u&gt;&lt;/div&gt;&lt;div&gt;&lt;u&gt;:TradingHandler&lt;/u&gt;&lt;br&gt;&lt;/div&gt;" style="shape=umlLifeline;perimeter=lifelinePerimeter;whiteSpace=wrap;html=1;container=1;dropTarget=0;collapsible=0;recursiveResize=0;outlineConnect=0;portConstraint=eastwest;newEdgeStyle={&quot;curved&quot;:0,&quot;rounded&quot;:0};" parent="1" vertex="1">
          <mxGeometry x="1650" y="1156.22" width="100" height="300" as="geometry" />
        </mxCell>
        <mxCell id="-R4UiotYeWdrvrbhJRBY-115" value="" style="html=1;points=[[0,0,0,0,5],[0,1,0,0,-5],[1,0,0,0,5],[1,1,0,0,-5]];perimeter=orthogonalPerimeter;outlineConnect=0;targetShapes=umlLifeline;portConstraint=eastwest;newEdgeStyle={&quot;curved&quot;:0,&quot;rounded&quot;:0};" parent="-R4UiotYeWdrvrbhJRBY-114" vertex="1">
          <mxGeometry x="45" y="110" width="10" height="160" as="geometry" />
        </mxCell>
        <mxCell id="-R4UiotYeWdrvrbhJRBY-116" value="" style="endArrow=none;dashed=1;endFill=0;endSize=12;html=1;rounded=0;" parent="1" source="-R4UiotYeWdrvrbhJRBY-118" edge="1">
          <mxGeometry width="160" relative="1" as="geometry">
            <mxPoint x="1494.78" y="1246.22" as="sourcePoint" />
            <mxPoint x="1495" y="1472.4422222222222" as="targetPoint" />
          </mxGeometry>
        </mxCell>
        <mxCell id="-R4UiotYeWdrvrbhJRBY-117" value="" style="endArrow=none;dashed=1;endFill=0;endSize=12;html=1;rounded=0;" parent="1" target="-R4UiotYeWdrvrbhJRBY-118" edge="1">
          <mxGeometry width="160" relative="1" as="geometry">
            <mxPoint x="1494.78" y="1246.22" as="sourcePoint" />
            <mxPoint x="1495" y="1472.4422222222222" as="targetPoint" />
          </mxGeometry>
        </mxCell>
        <mxCell id="-R4UiotYeWdrvrbhJRBY-118" value="" style="html=1;points=[[0,0,0,0,5],[0,1,0,0,-5],[1,0,0,0,5],[1,1,0,0,-5]];perimeter=orthogonalPerimeter;outlineConnect=0;targetShapes=umlLifeline;portConstraint=eastwest;newEdgeStyle={&quot;curved&quot;:0,&quot;rounded&quot;:0};" parent="1" vertex="1">
          <mxGeometry x="1490" y="1266.22" width="10" height="160" as="geometry" />
        </mxCell>
        <mxCell id="-R4UiotYeWdrvrbhJRBY-119" value="&lt;u&gt;:User&lt;/u&gt;" style="shape=umlLifeline;perimeter=lifelinePerimeter;whiteSpace=wrap;html=1;container=1;dropTarget=0;collapsible=0;recursiveResize=0;outlineConnect=0;portConstraint=eastwest;newEdgeStyle={&quot;curved&quot;:0,&quot;rounded&quot;:0};" parent="1" vertex="1">
          <mxGeometry x="1950" y="1156.22" width="100" height="300" as="geometry" />
        </mxCell>
        <mxCell id="-R4UiotYeWdrvrbhJRBY-120" value="" style="html=1;points=[[0,0,0,0,5],[0,1,0,0,-5],[1,0,0,0,5],[1,1,0,0,-5]];perimeter=orthogonalPerimeter;outlineConnect=0;targetShapes=umlLifeline;portConstraint=eastwest;newEdgeStyle={&quot;curved&quot;:0,&quot;rounded&quot;:0};" parent="-R4UiotYeWdrvrbhJRBY-119" vertex="1">
          <mxGeometry x="45" y="110" width="10" height="160" as="geometry" />
        </mxCell>
        <mxCell id="-R4UiotYeWdrvrbhJRBY-121" value="&lt;div&gt;createNewUser(name,e-mail,&lt;/div&gt;&lt;div&gt;password,phone)&lt;br&gt;&lt;/div&gt;" style="html=1;verticalAlign=bottom;endArrow=block;curved=0;rounded=0;" parent="1" target="-R4UiotYeWdrvrbhJRBY-115" edge="1">
          <mxGeometry width="80" relative="1" as="geometry">
            <mxPoint x="1500" y="1286.22" as="sourcePoint" />
            <mxPoint x="1580" y="1286.22" as="targetPoint" />
          </mxGeometry>
        </mxCell>
        <mxCell id="-R4UiotYeWdrvrbhJRBY-122" value="&lt;div&gt;createNewUser(name,e-mail,&lt;/div&gt;password,phone)" style="html=1;verticalAlign=bottom;endArrow=block;curved=0;rounded=0;" parent="1" target="-R4UiotYeWdrvrbhJRBY-120" edge="1">
          <mxGeometry width="80" relative="1" as="geometry">
            <mxPoint x="1705" y="1305.89" as="sourcePoint" />
            <mxPoint x="1990" y="1305.8899999999999" as="targetPoint" />
          </mxGeometry>
        </mxCell>
        <mxCell id="-R4UiotYeWdrvrbhJRBY-125" value="User created" style="html=1;verticalAlign=bottom;endArrow=block;curved=0;rounded=0;dashed=1;" parent="1" edge="1">
          <mxGeometry width="80" relative="1" as="geometry">
            <mxPoint x="1995" y="1396.05" as="sourcePoint" />
            <mxPoint x="1705" y="1396.05" as="targetPoint" />
          </mxGeometry>
        </mxCell>
        <mxCell id="-R4UiotYeWdrvrbhJRBY-126" value="User created" style="html=1;verticalAlign=bottom;endArrow=block;curved=0;rounded=0;dashed=1;" parent="1" edge="1">
          <mxGeometry width="80" relative="1" as="geometry">
            <mxPoint x="1690" y="1416.22" as="sourcePoint" />
            <mxPoint x="1500" y="1416.22" as="targetPoint" />
          </mxGeometry>
        </mxCell>
        <mxCell id="-R4UiotYeWdrvrbhJRBY-129" value="" style="shape=datastore;whiteSpace=wrap;html=1;" parent="1" vertex="1">
          <mxGeometry x="2160" y="1140" width="60" height="60" as="geometry" />
        </mxCell>
        <mxCell id="-R4UiotYeWdrvrbhJRBY-130" value="" style="endArrow=none;dashed=1;endFill=0;endSize=12;html=1;rounded=0;" parent="1" source="-R4UiotYeWdrvrbhJRBY-132" edge="1">
          <mxGeometry width="160" relative="1" as="geometry">
            <mxPoint x="2189.7799999999997" y="1230" as="sourcePoint" />
            <mxPoint x="2190" y="1456.2222222222222" as="targetPoint" />
          </mxGeometry>
        </mxCell>
        <mxCell id="-R4UiotYeWdrvrbhJRBY-131" value="" style="endArrow=none;dashed=1;endFill=0;endSize=12;html=1;rounded=0;" parent="1" target="-R4UiotYeWdrvrbhJRBY-132" edge="1">
          <mxGeometry width="160" relative="1" as="geometry">
            <mxPoint x="2189.7799999999997" y="1230" as="sourcePoint" />
            <mxPoint x="2190" y="1456.2222222222222" as="targetPoint" />
          </mxGeometry>
        </mxCell>
        <mxCell id="-R4UiotYeWdrvrbhJRBY-132" value="" style="html=1;points=[[0,0,0,0,5],[0,1,0,0,-5],[1,0,0,0,5],[1,1,0,0,-5]];perimeter=orthogonalPerimeter;outlineConnect=0;targetShapes=umlLifeline;portConstraint=eastwest;newEdgeStyle={&quot;curved&quot;:0,&quot;rounded&quot;:0};" parent="1" vertex="1">
          <mxGeometry x="2185" y="1250" width="10" height="160" as="geometry" />
        </mxCell>
        <mxCell id="-R4UiotYeWdrvrbhJRBY-133" value="&lt;u&gt;:Database&lt;/u&gt;" style="text;html=1;align=center;verticalAlign=middle;resizable=0;points=[];autosize=1;strokeColor=none;fillColor=none;" parent="1" vertex="1">
          <mxGeometry x="2150" y="1200" width="80" height="30" as="geometry" />
        </mxCell>
        <mxCell id="-R4UiotYeWdrvrbhJRBY-134" value="writeDB(uAc)" style="html=1;verticalAlign=bottom;endArrow=block;curved=0;rounded=0;" parent="1" source="-R4UiotYeWdrvrbhJRBY-120" edge="1">
          <mxGeometry width="80" relative="1" as="geometry">
            <mxPoint x="2010" y="1329.22" as="sourcePoint" />
            <mxPoint x="2185" y="1329.6200000000001" as="targetPoint" />
          </mxGeometry>
        </mxCell>
        <mxCell id="-R4UiotYeWdrvrbhJRBY-135" value="User created" style="html=1;verticalAlign=bottom;endArrow=block;curved=0;rounded=0;dashed=1;" parent="1" target="-R4UiotYeWdrvrbhJRBY-120" edge="1">
          <mxGeometry width="80" relative="1" as="geometry">
            <mxPoint x="2185" y="1370" as="sourcePoint" />
            <mxPoint x="2015" y="1370" as="targetPoint" />
          </mxGeometry>
        </mxCell>
        <mxCell id="-R4UiotYeWdrvrbhJRBY-138" value="User" style="shape=umlActor;verticalLabelPosition=bottom;verticalAlign=top;html=1;outlineConnect=0;" parent="1" vertex="1">
          <mxGeometry x="75" y="1606.22" width="30" height="60" as="geometry" />
        </mxCell>
        <mxCell id="-R4UiotYeWdrvrbhJRBY-139" value="&lt;div&gt;&lt;u&gt;&amp;lt;&amp;lt;Controller&amp;gt;&amp;gt;&lt;/u&gt;&lt;/div&gt;&lt;div&gt;&lt;u&gt;:TradingHandler&lt;/u&gt;&lt;br&gt;&lt;/div&gt;" style="shape=umlLifeline;perimeter=lifelinePerimeter;whiteSpace=wrap;html=1;container=1;dropTarget=0;collapsible=0;recursiveResize=0;outlineConnect=0;portConstraint=eastwest;newEdgeStyle={&quot;curved&quot;:0,&quot;rounded&quot;:0};" parent="1" vertex="1">
          <mxGeometry x="245" y="1606.22" width="100" height="483.78" as="geometry" />
        </mxCell>
        <mxCell id="-R4UiotYeWdrvrbhJRBY-140" value="" style="html=1;points=[[0,0,0,0,5],[0,1,0,0,-5],[1,0,0,0,5],[1,1,0,0,-5]];perimeter=orthogonalPerimeter;outlineConnect=0;targetShapes=umlLifeline;portConstraint=eastwest;newEdgeStyle={&quot;curved&quot;:0,&quot;rounded&quot;:0};" parent="-R4UiotYeWdrvrbhJRBY-139" vertex="1">
          <mxGeometry x="45" y="110" width="10" height="160" as="geometry" />
        </mxCell>
        <mxCell id="-R4UiotYeWdrvrbhJRBY-141" value="" style="endArrow=none;dashed=1;endFill=0;endSize=12;html=1;rounded=0;" parent="1" source="-R4UiotYeWdrvrbhJRBY-164" edge="1">
          <mxGeometry width="160" relative="1" as="geometry">
            <mxPoint x="89.77999999999997" y="1696.22" as="sourcePoint" />
            <mxPoint x="90" y="2090" as="targetPoint" />
          </mxGeometry>
        </mxCell>
        <mxCell id="-R4UiotYeWdrvrbhJRBY-142" value="" style="endArrow=none;dashed=1;endFill=0;endSize=12;html=1;rounded=0;" parent="1" target="-R4UiotYeWdrvrbhJRBY-143" edge="1">
          <mxGeometry width="160" relative="1" as="geometry">
            <mxPoint x="89.77999999999997" y="1696.22" as="sourcePoint" />
            <mxPoint x="90" y="1922.4422222222222" as="targetPoint" />
          </mxGeometry>
        </mxCell>
        <mxCell id="-R4UiotYeWdrvrbhJRBY-143" value="" style="html=1;points=[[0,0,0,0,5],[0,1,0,0,-5],[1,0,0,0,5],[1,1,0,0,-5]];perimeter=orthogonalPerimeter;outlineConnect=0;targetShapes=umlLifeline;portConstraint=eastwest;newEdgeStyle={&quot;curved&quot;:0,&quot;rounded&quot;:0};" parent="1" vertex="1">
          <mxGeometry x="85" y="1716.22" width="10" height="160" as="geometry" />
        </mxCell>
        <mxCell id="-R4UiotYeWdrvrbhJRBY-144" value="&lt;u&gt;:User&lt;/u&gt;" style="shape=umlLifeline;perimeter=lifelinePerimeter;whiteSpace=wrap;html=1;container=1;dropTarget=0;collapsible=0;recursiveResize=0;outlineConnect=0;portConstraint=eastwest;newEdgeStyle={&quot;curved&quot;:0,&quot;rounded&quot;:0};" parent="1" vertex="1">
          <mxGeometry x="545" y="1606.22" width="100" height="473.78" as="geometry" />
        </mxCell>
        <mxCell id="-R4UiotYeWdrvrbhJRBY-145" value="" style="html=1;points=[[0,0,0,0,5],[0,1,0,0,-5],[1,0,0,0,5],[1,1,0,0,-5]];perimeter=orthogonalPerimeter;outlineConnect=0;targetShapes=umlLifeline;portConstraint=eastwest;newEdgeStyle={&quot;curved&quot;:0,&quot;rounded&quot;:0};" parent="-R4UiotYeWdrvrbhJRBY-144" vertex="1">
          <mxGeometry x="45" y="110" width="10" height="160" as="geometry" />
        </mxCell>
        <mxCell id="-R4UiotYeWdrvrbhJRBY-146" value="login(username,password)" style="html=1;verticalAlign=bottom;endArrow=block;curved=0;rounded=0;" parent="1" target="-R4UiotYeWdrvrbhJRBY-140" edge="1">
          <mxGeometry width="80" relative="1" as="geometry">
            <mxPoint x="95" y="1736.22" as="sourcePoint" />
            <mxPoint x="175" y="1736.22" as="targetPoint" />
          </mxGeometry>
        </mxCell>
        <mxCell id="-R4UiotYeWdrvrbhJRBY-147" value="login(username,password)" style="html=1;verticalAlign=bottom;endArrow=block;curved=0;rounded=0;" parent="1" target="-R4UiotYeWdrvrbhJRBY-145" edge="1">
          <mxGeometry width="80" relative="1" as="geometry">
            <mxPoint x="300" y="1755.89" as="sourcePoint" />
            <mxPoint x="585" y="1755.8899999999999" as="targetPoint" />
          </mxGeometry>
        </mxCell>
        <mxCell id="-R4UiotYeWdrvrbhJRBY-148" value="incorrect username or password" style="html=1;verticalAlign=bottom;endArrow=block;curved=0;rounded=0;dashed=1;" parent="1" edge="1">
          <mxGeometry width="80" relative="1" as="geometry">
            <mxPoint x="590" y="1846.05" as="sourcePoint" />
            <mxPoint x="300" y="1846.05" as="targetPoint" />
          </mxGeometry>
        </mxCell>
        <mxCell id="-R4UiotYeWdrvrbhJRBY-149" value="incorrect username or password" style="html=1;verticalAlign=bottom;endArrow=block;curved=0;rounded=0;dashed=1;" parent="1" target="-R4UiotYeWdrvrbhJRBY-143" edge="1">
          <mxGeometry width="80" relative="1" as="geometry">
            <mxPoint x="290" y="1866.22" as="sourcePoint" />
            <mxPoint x="100" y="1866.22" as="targetPoint" />
          </mxGeometry>
        </mxCell>
        <mxCell id="-R4UiotYeWdrvrbhJRBY-150" value="" style="shape=datastore;whiteSpace=wrap;html=1;" parent="1" vertex="1">
          <mxGeometry x="755" y="1590" width="60" height="60" as="geometry" />
        </mxCell>
        <mxCell id="-R4UiotYeWdrvrbhJRBY-151" value="" style="endArrow=none;dashed=1;endFill=0;endSize=12;html=1;rounded=0;" parent="1" source="-R4UiotYeWdrvrbhJRBY-153" edge="1">
          <mxGeometry width="160" relative="1" as="geometry">
            <mxPoint x="784.7799999999997" y="1680" as="sourcePoint" />
            <mxPoint x="785" y="2090.6451612903224" as="targetPoint" />
          </mxGeometry>
        </mxCell>
        <mxCell id="-R4UiotYeWdrvrbhJRBY-152" value="" style="endArrow=none;dashed=1;endFill=0;endSize=12;html=1;rounded=0;" parent="1" target="-R4UiotYeWdrvrbhJRBY-153" edge="1">
          <mxGeometry width="160" relative="1" as="geometry">
            <mxPoint x="784.7799999999997" y="1680" as="sourcePoint" />
            <mxPoint x="785" y="1906.2222222222222" as="targetPoint" />
          </mxGeometry>
        </mxCell>
        <mxCell id="-R4UiotYeWdrvrbhJRBY-153" value="" style="html=1;points=[[0,0,0,0,5],[0,1,0,0,-5],[1,0,0,0,5],[1,1,0,0,-5]];perimeter=orthogonalPerimeter;outlineConnect=0;targetShapes=umlLifeline;portConstraint=eastwest;newEdgeStyle={&quot;curved&quot;:0,&quot;rounded&quot;:0};" parent="1" vertex="1">
          <mxGeometry x="780" y="1700" width="10" height="180" as="geometry" />
        </mxCell>
        <mxCell id="-R4UiotYeWdrvrbhJRBY-154" value="&lt;u&gt;:Database&lt;/u&gt;" style="text;html=1;align=center;verticalAlign=middle;resizable=0;points=[];autosize=1;strokeColor=none;fillColor=none;" parent="1" vertex="1">
          <mxGeometry x="745" y="1650" width="80" height="30" as="geometry" />
        </mxCell>
        <mxCell id="-R4UiotYeWdrvrbhJRBY-155" value="&lt;div&gt;checkAccount(username,password)&lt;/div&gt;" style="html=1;verticalAlign=bottom;endArrow=block;curved=0;rounded=0;" parent="1" edge="1">
          <mxGeometry width="80" relative="1" as="geometry">
            <mxPoint x="600" y="1795.77" as="sourcePoint" />
            <mxPoint x="780" y="1795.7700000000002" as="targetPoint" />
          </mxGeometry>
        </mxCell>
        <mxCell id="-R4UiotYeWdrvrbhJRBY-156" value="incorrect username or password" style="html=1;verticalAlign=bottom;endArrow=block;curved=0;rounded=0;dashed=1;" parent="1" target="-R4UiotYeWdrvrbhJRBY-145" edge="1">
          <mxGeometry width="80" relative="1" as="geometry">
            <mxPoint x="780" y="1820" as="sourcePoint" />
            <mxPoint x="610" y="1820" as="targetPoint" />
          </mxGeometry>
        </mxCell>
        <mxCell id="-R4UiotYeWdrvrbhJRBY-158" value="frame" style="shape=umlFrame;whiteSpace=wrap;html=1;pointerEvents=0;" parent="1" vertex="1">
          <mxGeometry x="10" y="1770" width="830" height="300" as="geometry" />
        </mxCell>
        <mxCell id="-R4UiotYeWdrvrbhJRBY-159" value="" style="endArrow=none;html=1;rounded=0;endFill=0;" parent="1" edge="1">
          <mxGeometry width="50" height="50" relative="1" as="geometry">
            <mxPoint x="10" y="1919.68" as="sourcePoint" />
            <mxPoint x="840" y="1919.68" as="targetPoint" />
          </mxGeometry>
        </mxCell>
        <mxCell id="-R4UiotYeWdrvrbhJRBY-160" value="" style="html=1;points=[[0,0,0,0,5],[0,1,0,0,-5],[1,0,0,0,5],[1,1,0,0,-5]];perimeter=orthogonalPerimeter;outlineConnect=0;targetShapes=umlLifeline;portConstraint=eastwest;newEdgeStyle={&quot;curved&quot;:0,&quot;rounded&quot;:0};" parent="1" vertex="1">
          <mxGeometry x="780" y="1950" width="10" height="80" as="geometry" />
        </mxCell>
        <mxCell id="-R4UiotYeWdrvrbhJRBY-161" value="&lt;div&gt;checkAccount(username,password)&lt;/div&gt;" style="html=1;verticalAlign=bottom;endArrow=block;curved=0;rounded=0;" parent="1" edge="1">
          <mxGeometry width="80" relative="1" as="geometry">
            <mxPoint x="600" y="1980" as="sourcePoint" />
            <mxPoint x="780" y="1980.0000000000002" as="targetPoint" />
          </mxGeometry>
        </mxCell>
        <mxCell id="-R4UiotYeWdrvrbhJRBY-162" value="" style="html=1;points=[[0,0,0,0,5],[0,1,0,0,-5],[1,0,0,0,5],[1,1,0,0,-5]];perimeter=orthogonalPerimeter;outlineConnect=0;targetShapes=umlLifeline;portConstraint=eastwest;newEdgeStyle={&quot;curved&quot;:0,&quot;rounded&quot;:0};" parent="1" vertex="1">
          <mxGeometry x="590" y="1950" width="10" height="90" as="geometry" />
        </mxCell>
        <mxCell id="-R4UiotYeWdrvrbhJRBY-163" value="" style="html=1;points=[[0,0,0,0,5],[0,1,0,0,-5],[1,0,0,0,5],[1,1,0,0,-5]];perimeter=orthogonalPerimeter;outlineConnect=0;targetShapes=umlLifeline;portConstraint=eastwest;newEdgeStyle={&quot;curved&quot;:0,&quot;rounded&quot;:0};" parent="1" vertex="1">
          <mxGeometry x="290" y="1950" width="10" height="90" as="geometry" />
        </mxCell>
        <mxCell id="-R4UiotYeWdrvrbhJRBY-165" value="" style="endArrow=none;dashed=1;endFill=0;endSize=12;html=1;rounded=0;" parent="1" source="-R4UiotYeWdrvrbhJRBY-143" target="-R4UiotYeWdrvrbhJRBY-164" edge="1">
          <mxGeometry width="160" relative="1" as="geometry">
            <mxPoint x="90" y="1876" as="sourcePoint" />
            <mxPoint x="90" y="2090" as="targetPoint" />
          </mxGeometry>
        </mxCell>
        <mxCell id="-R4UiotYeWdrvrbhJRBY-164" value="" style="html=1;points=[[0,0,0,0,5],[0,1,0,0,-5],[1,0,0,0,5],[1,1,0,0,-5]];perimeter=orthogonalPerimeter;outlineConnect=0;targetShapes=umlLifeline;portConstraint=eastwest;newEdgeStyle={&quot;curved&quot;:0,&quot;rounded&quot;:0};" parent="1" vertex="1">
          <mxGeometry x="85" y="1950" width="10" height="90" as="geometry" />
        </mxCell>
        <mxCell id="-R4UiotYeWdrvrbhJRBY-167" value="Correct information" style="html=1;verticalAlign=bottom;endArrow=block;curved=0;rounded=0;dashed=1;" parent="1" edge="1">
          <mxGeometry width="80" relative="1" as="geometry">
            <mxPoint x="780" y="2000" as="sourcePoint" />
            <mxPoint x="600" y="2000" as="targetPoint" />
          </mxGeometry>
        </mxCell>
        <mxCell id="-R4UiotYeWdrvrbhJRBY-168" value="Correct information" style="html=1;verticalAlign=bottom;endArrow=block;curved=0;rounded=0;dashed=1;" parent="1" edge="1">
          <mxGeometry width="80" relative="1" as="geometry">
            <mxPoint x="590" y="2010" as="sourcePoint" />
            <mxPoint x="300" y="2010" as="targetPoint" />
          </mxGeometry>
        </mxCell>
        <mxCell id="-R4UiotYeWdrvrbhJRBY-169" value="Login to home page" style="html=1;verticalAlign=bottom;endArrow=block;curved=0;rounded=0;dashed=1;" parent="1" target="-R4UiotYeWdrvrbhJRBY-164" edge="1">
          <mxGeometry width="80" relative="1" as="geometry">
            <mxPoint x="290" y="2030" as="sourcePoint" />
            <mxPoint x="100" y="2030" as="targetPoint" />
          </mxGeometry>
        </mxCell>
        <mxCell id="-R4UiotYeWdrvrbhJRBY-170" value="&lt;div&gt;incorrect&lt;/div&gt;&lt;div&gt;information&lt;br&gt;&lt;/div&gt;" style="text;html=1;align=center;verticalAlign=middle;resizable=0;points=[];autosize=1;strokeColor=none;fillColor=none;" parent="1" vertex="1">
          <mxGeometry x="5" y="1805" width="80" height="40" as="geometry" />
        </mxCell>
        <mxCell id="-R4UiotYeWdrvrbhJRBY-171" value="&lt;div&gt;correct&lt;/div&gt;&lt;div&gt;information&lt;br&gt;&lt;/div&gt;" style="text;html=1;align=center;verticalAlign=middle;resizable=0;points=[];autosize=1;strokeColor=none;fillColor=none;" parent="1" vertex="1">
          <mxGeometry x="5" y="1920" width="80" height="40" as="geometry" />
        </mxCell>
        <mxCell id="-R4UiotYeWdrvrbhJRBY-172" value="User" style="shape=umlActor;verticalLabelPosition=bottom;verticalAlign=top;html=1;outlineConnect=0;" parent="1" vertex="1">
          <mxGeometry x="1170" y="1682.44" width="30" height="60" as="geometry" />
        </mxCell>
        <mxCell id="-R4UiotYeWdrvrbhJRBY-173" value="&lt;div&gt;&lt;u&gt;&amp;lt;&amp;lt;Controller&amp;gt;&amp;gt;&lt;/u&gt;&lt;/div&gt;&lt;div&gt;&lt;u&gt;:TradingHandler&lt;/u&gt;&lt;br&gt;&lt;/div&gt;" style="shape=umlLifeline;perimeter=lifelinePerimeter;whiteSpace=wrap;html=1;container=1;dropTarget=0;collapsible=0;recursiveResize=0;outlineConnect=0;portConstraint=eastwest;newEdgeStyle={&quot;curved&quot;:0,&quot;rounded&quot;:0};" parent="1" vertex="1">
          <mxGeometry x="1340" y="1682.44" width="100" height="300" as="geometry" />
        </mxCell>
        <mxCell id="-R4UiotYeWdrvrbhJRBY-174" value="" style="html=1;points=[[0,0,0,0,5],[0,1,0,0,-5],[1,0,0,0,5],[1,1,0,0,-5]];perimeter=orthogonalPerimeter;outlineConnect=0;targetShapes=umlLifeline;portConstraint=eastwest;newEdgeStyle={&quot;curved&quot;:0,&quot;rounded&quot;:0};" parent="-R4UiotYeWdrvrbhJRBY-173" vertex="1">
          <mxGeometry x="45" y="110" width="10" height="160" as="geometry" />
        </mxCell>
        <mxCell id="-R4UiotYeWdrvrbhJRBY-175" value="" style="endArrow=none;dashed=1;endFill=0;endSize=12;html=1;rounded=0;" parent="1" source="-R4UiotYeWdrvrbhJRBY-177" edge="1">
          <mxGeometry width="160" relative="1" as="geometry">
            <mxPoint x="1184.78" y="1772.44" as="sourcePoint" />
            <mxPoint x="1185" y="1998.6622222222222" as="targetPoint" />
          </mxGeometry>
        </mxCell>
        <mxCell id="-R4UiotYeWdrvrbhJRBY-176" value="" style="endArrow=none;dashed=1;endFill=0;endSize=12;html=1;rounded=0;" parent="1" target="-R4UiotYeWdrvrbhJRBY-177" edge="1">
          <mxGeometry width="160" relative="1" as="geometry">
            <mxPoint x="1184.78" y="1772.44" as="sourcePoint" />
            <mxPoint x="1185" y="1998.6622222222222" as="targetPoint" />
          </mxGeometry>
        </mxCell>
        <mxCell id="-R4UiotYeWdrvrbhJRBY-177" value="" style="html=1;points=[[0,0,0,0,5],[0,1,0,0,-5],[1,0,0,0,5],[1,1,0,0,-5]];perimeter=orthogonalPerimeter;outlineConnect=0;targetShapes=umlLifeline;portConstraint=eastwest;newEdgeStyle={&quot;curved&quot;:0,&quot;rounded&quot;:0};" parent="1" vertex="1">
          <mxGeometry x="1180" y="1792.44" width="10" height="160" as="geometry" />
        </mxCell>
        <mxCell id="-R4UiotYeWdrvrbhJRBY-178" value="&lt;u&gt;:User&lt;/u&gt;" style="shape=umlLifeline;perimeter=lifelinePerimeter;whiteSpace=wrap;html=1;container=1;dropTarget=0;collapsible=0;recursiveResize=0;outlineConnect=0;portConstraint=eastwest;newEdgeStyle={&quot;curved&quot;:0,&quot;rounded&quot;:0};" parent="1" vertex="1">
          <mxGeometry x="1640" y="1682.44" width="100" height="300" as="geometry" />
        </mxCell>
        <mxCell id="-R4UiotYeWdrvrbhJRBY-179" value="" style="html=1;points=[[0,0,0,0,5],[0,1,0,0,-5],[1,0,0,0,5],[1,1,0,0,-5]];perimeter=orthogonalPerimeter;outlineConnect=0;targetShapes=umlLifeline;portConstraint=eastwest;newEdgeStyle={&quot;curved&quot;:0,&quot;rounded&quot;:0};" parent="-R4UiotYeWdrvrbhJRBY-178" vertex="1">
          <mxGeometry x="45" y="110" width="10" height="160" as="geometry" />
        </mxCell>
        <mxCell id="-R4UiotYeWdrvrbhJRBY-180" value="createPortfolio()" style="html=1;verticalAlign=bottom;endArrow=block;curved=0;rounded=0;" parent="1" target="-R4UiotYeWdrvrbhJRBY-174" edge="1">
          <mxGeometry width="80" relative="1" as="geometry">
            <mxPoint x="1190" y="1812.44" as="sourcePoint" />
            <mxPoint x="1270" y="1812.44" as="targetPoint" />
          </mxGeometry>
        </mxCell>
        <mxCell id="-R4UiotYeWdrvrbhJRBY-181" value="createPortfolio()" style="html=1;verticalAlign=bottom;endArrow=block;curved=0;rounded=0;" parent="1" target="-R4UiotYeWdrvrbhJRBY-179" edge="1">
          <mxGeometry width="80" relative="1" as="geometry">
            <mxPoint x="1395" y="1832.1100000000001" as="sourcePoint" />
            <mxPoint x="1680" y="1832.11" as="targetPoint" />
          </mxGeometry>
        </mxCell>
        <mxCell id="-R4UiotYeWdrvrbhJRBY-182" value="Portfolio created" style="html=1;verticalAlign=bottom;endArrow=block;curved=0;rounded=0;dashed=1;" parent="1" edge="1">
          <mxGeometry width="80" relative="1" as="geometry">
            <mxPoint x="1685" y="1922.27" as="sourcePoint" />
            <mxPoint x="1395" y="1922.27" as="targetPoint" />
          </mxGeometry>
        </mxCell>
        <mxCell id="-R4UiotYeWdrvrbhJRBY-183" value="Portfolio created" style="html=1;verticalAlign=bottom;endArrow=block;curved=0;rounded=0;dashed=1;" parent="1" edge="1">
          <mxGeometry width="80" relative="1" as="geometry">
            <mxPoint x="1380" y="1942.44" as="sourcePoint" />
            <mxPoint x="1190" y="1942.44" as="targetPoint" />
          </mxGeometry>
        </mxCell>
        <mxCell id="-R4UiotYeWdrvrbhJRBY-184" value="" style="shape=datastore;whiteSpace=wrap;html=1;" parent="1" vertex="1">
          <mxGeometry x="2150" y="1680" width="60" height="60" as="geometry" />
        </mxCell>
        <mxCell id="-R4UiotYeWdrvrbhJRBY-185" value="" style="endArrow=none;dashed=1;endFill=0;endSize=12;html=1;rounded=0;" parent="1" source="-R4UiotYeWdrvrbhJRBY-187" edge="1">
          <mxGeometry width="160" relative="1" as="geometry">
            <mxPoint x="2179.7799999999997" y="1770" as="sourcePoint" />
            <mxPoint x="2180" y="1996.2222222222222" as="targetPoint" />
          </mxGeometry>
        </mxCell>
        <mxCell id="-R4UiotYeWdrvrbhJRBY-186" value="" style="endArrow=none;dashed=1;endFill=0;endSize=12;html=1;rounded=0;" parent="1" target="-R4UiotYeWdrvrbhJRBY-187" edge="1">
          <mxGeometry width="160" relative="1" as="geometry">
            <mxPoint x="2179.7799999999997" y="1770" as="sourcePoint" />
            <mxPoint x="2180" y="1996.2222222222222" as="targetPoint" />
          </mxGeometry>
        </mxCell>
        <mxCell id="-R4UiotYeWdrvrbhJRBY-187" value="" style="html=1;points=[[0,0,0,0,5],[0,1,0,0,-5],[1,0,0,0,5],[1,1,0,0,-5]];perimeter=orthogonalPerimeter;outlineConnect=0;targetShapes=umlLifeline;portConstraint=eastwest;newEdgeStyle={&quot;curved&quot;:0,&quot;rounded&quot;:0};" parent="1" vertex="1">
          <mxGeometry x="2175" y="1790" width="10" height="160" as="geometry" />
        </mxCell>
        <mxCell id="-R4UiotYeWdrvrbhJRBY-188" value="&lt;u&gt;:Database&lt;/u&gt;" style="text;html=1;align=center;verticalAlign=middle;resizable=0;points=[];autosize=1;strokeColor=none;fillColor=none;" parent="1" vertex="1">
          <mxGeometry x="2140" y="1740" width="80" height="30" as="geometry" />
        </mxCell>
        <mxCell id="-R4UiotYeWdrvrbhJRBY-189" value="writeDB(portfolio)" style="html=1;verticalAlign=bottom;endArrow=block;curved=0;rounded=0;" parent="1" target="-R4UiotYeWdrvrbhJRBY-187" edge="1">
          <mxGeometry width="80" relative="1" as="geometry">
            <mxPoint x="1960" y="1876.2200000000007" as="sourcePoint" />
            <mxPoint x="2140" y="1876.2200000000003" as="targetPoint" />
          </mxGeometry>
        </mxCell>
        <mxCell id="-R4UiotYeWdrvrbhJRBY-190" value="Portfolio created" style="html=1;verticalAlign=bottom;endArrow=block;curved=0;rounded=0;dashed=1;" parent="1" target="h-QlxrjOAg-Av81_AVd5-7" edge="1">
          <mxGeometry width="80" relative="1" as="geometry">
            <mxPoint x="2175" y="1896.22" as="sourcePoint" />
            <mxPoint x="1995" y="1896.2200000000007" as="targetPoint" />
          </mxGeometry>
        </mxCell>
        <mxCell id="-R4UiotYeWdrvrbhJRBY-191" value="&lt;u&gt;:AiModel&lt;br&gt;&lt;/u&gt;" style="shape=umlLifeline;perimeter=lifelinePerimeter;whiteSpace=wrap;html=1;container=1;dropTarget=0;collapsible=0;recursiveResize=0;outlineConnect=0;portConstraint=eastwest;newEdgeStyle={&quot;curved&quot;:0,&quot;rounded&quot;:0};" parent="1" vertex="1">
          <mxGeometry x="2050" y="713.78" width="100" height="300" as="geometry" />
        </mxCell>
        <mxCell id="-R4UiotYeWdrvrbhJRBY-192" value="" style="html=1;points=[[0,0,0,0,5],[0,1,0,0,-5],[1,0,0,0,5],[1,1,0,0,-5]];perimeter=orthogonalPerimeter;outlineConnect=0;targetShapes=umlLifeline;portConstraint=eastwest;newEdgeStyle={&quot;curved&quot;:0,&quot;rounded&quot;:0};" parent="-R4UiotYeWdrvrbhJRBY-191" vertex="1">
          <mxGeometry x="45" y="110" width="10" height="160" as="geometry" />
        </mxCell>
        <mxCell id="-R4UiotYeWdrvrbhJRBY-193" value="&lt;div&gt;generateSuggestion(symbol,&lt;/div&gt;&lt;div&gt;companyName,&lt;/div&gt;&lt;div&gt;suggestionType)&lt;/div&gt;" style="html=1;verticalAlign=bottom;endArrow=block;curved=0;rounded=0;" parent="1" source="-R4UiotYeWdrvrbhJRBY-77" target="-R4UiotYeWdrvrbhJRBY-192" edge="1">
          <mxGeometry width="80" relative="1" as="geometry">
            <mxPoint x="1930" y="900" as="sourcePoint" />
            <mxPoint x="2070" y="900" as="targetPoint" />
          </mxGeometry>
        </mxCell>
        <mxCell id="-R4UiotYeWdrvrbhJRBY-194" value="Suggestion answer" style="html=1;verticalAlign=bottom;endArrow=block;curved=0;rounded=0;dashed=1;" parent="1" edge="1">
          <mxGeometry width="80" relative="1" as="geometry">
            <mxPoint x="2090" y="920" as="sourcePoint" />
            <mxPoint x="1930" y="920" as="targetPoint" />
          </mxGeometry>
        </mxCell>
        <mxCell id="2tVGv0uhPfWlnNjPmABv-1" value="User" style="shape=umlActor;verticalLabelPosition=bottom;verticalAlign=top;html=1;outlineConnect=0;" parent="1" vertex="1">
          <mxGeometry x="105" y="2190" width="30" height="60" as="geometry" />
        </mxCell>
        <mxCell id="2tVGv0uhPfWlnNjPmABv-2" value="&lt;div&gt;&lt;u&gt;&amp;lt;&amp;lt;Controller&amp;gt;&amp;gt;&lt;/u&gt;&lt;/div&gt;&lt;div&gt;&lt;u&gt;:TradingHandler&lt;/u&gt;&lt;br&gt;&lt;/div&gt;" style="shape=umlLifeline;perimeter=lifelinePerimeter;whiteSpace=wrap;html=1;container=1;dropTarget=0;collapsible=0;recursiveResize=0;outlineConnect=0;portConstraint=eastwest;newEdgeStyle={&quot;curved&quot;:0,&quot;rounded&quot;:0};" parent="1" vertex="1">
          <mxGeometry x="275" y="2190" width="100" height="300" as="geometry" />
        </mxCell>
        <mxCell id="2tVGv0uhPfWlnNjPmABv-3" value="" style="html=1;points=[[0,0,0,0,5],[0,1,0,0,-5],[1,0,0,0,5],[1,1,0,0,-5]];perimeter=orthogonalPerimeter;outlineConnect=0;targetShapes=umlLifeline;portConstraint=eastwest;newEdgeStyle={&quot;curved&quot;:0,&quot;rounded&quot;:0};" parent="2tVGv0uhPfWlnNjPmABv-2" vertex="1">
          <mxGeometry x="45" y="110" width="10" height="160" as="geometry" />
        </mxCell>
        <mxCell id="2tVGv0uhPfWlnNjPmABv-4" value="" style="endArrow=none;dashed=1;endFill=0;endSize=12;html=1;rounded=0;" parent="1" source="2tVGv0uhPfWlnNjPmABv-6" edge="1">
          <mxGeometry width="160" relative="1" as="geometry">
            <mxPoint x="119.77999999999997" y="2280" as="sourcePoint" />
            <mxPoint x="120" y="2506.222222222222" as="targetPoint" />
          </mxGeometry>
        </mxCell>
        <mxCell id="2tVGv0uhPfWlnNjPmABv-5" value="" style="endArrow=none;dashed=1;endFill=0;endSize=12;html=1;rounded=0;" parent="1" target="2tVGv0uhPfWlnNjPmABv-6" edge="1">
          <mxGeometry width="160" relative="1" as="geometry">
            <mxPoint x="119.77999999999997" y="2280" as="sourcePoint" />
            <mxPoint x="120" y="2506.222222222222" as="targetPoint" />
          </mxGeometry>
        </mxCell>
        <mxCell id="2tVGv0uhPfWlnNjPmABv-6" value="" style="html=1;points=[[0,0,0,0,5],[0,1,0,0,-5],[1,0,0,0,5],[1,1,0,0,-5]];perimeter=orthogonalPerimeter;outlineConnect=0;targetShapes=umlLifeline;portConstraint=eastwest;newEdgeStyle={&quot;curved&quot;:0,&quot;rounded&quot;:0};" parent="1" vertex="1">
          <mxGeometry x="115" y="2300" width="10" height="160" as="geometry" />
        </mxCell>
        <mxCell id="2tVGv0uhPfWlnNjPmABv-7" value="&lt;u&gt;:User&lt;/u&gt;" style="shape=umlLifeline;perimeter=lifelinePerimeter;whiteSpace=wrap;html=1;container=1;dropTarget=0;collapsible=0;recursiveResize=0;outlineConnect=0;portConstraint=eastwest;newEdgeStyle={&quot;curved&quot;:0,&quot;rounded&quot;:0};" parent="1" vertex="1">
          <mxGeometry x="455" y="2190" width="100" height="300" as="geometry" />
        </mxCell>
        <mxCell id="2tVGv0uhPfWlnNjPmABv-8" value="" style="html=1;points=[[0,0,0,0,5],[0,1,0,0,-5],[1,0,0,0,5],[1,1,0,0,-5]];perimeter=orthogonalPerimeter;outlineConnect=0;targetShapes=umlLifeline;portConstraint=eastwest;newEdgeStyle={&quot;curved&quot;:0,&quot;rounded&quot;:0};" parent="2tVGv0uhPfWlnNjPmABv-7" vertex="1">
          <mxGeometry x="45" y="110" width="10" height="160" as="geometry" />
        </mxCell>
        <mxCell id="2tVGv0uhPfWlnNjPmABv-9" value="&lt;u&gt;:Bot&lt;br&gt;&lt;/u&gt;" style="shape=umlLifeline;perimeter=lifelinePerimeter;whiteSpace=wrap;html=1;container=1;dropTarget=0;collapsible=0;recursiveResize=0;outlineConnect=0;portConstraint=eastwest;newEdgeStyle={&quot;curved&quot;:0,&quot;rounded&quot;:0};" parent="1" vertex="1">
          <mxGeometry x="635" y="2190" width="100" height="300" as="geometry" />
        </mxCell>
        <mxCell id="2tVGv0uhPfWlnNjPmABv-10" value="" style="html=1;points=[[0,0,0,0,5],[0,1,0,0,-5],[1,0,0,0,5],[1,1,0,0,-5]];perimeter=orthogonalPerimeter;outlineConnect=0;targetShapes=umlLifeline;portConstraint=eastwest;newEdgeStyle={&quot;curved&quot;:0,&quot;rounded&quot;:0};" parent="2tVGv0uhPfWlnNjPmABv-9" vertex="1">
          <mxGeometry x="45" y="110" width="10" height="160" as="geometry" />
        </mxCell>
        <mxCell id="2tVGv0uhPfWlnNjPmABv-11" value="&lt;div&gt;customizeBot(slectedStocks,&lt;/div&gt;&lt;div&gt;risk,strategy,budget)&lt;/div&gt;" style="html=1;verticalAlign=bottom;endArrow=block;curved=0;rounded=0;" parent="1" target="2tVGv0uhPfWlnNjPmABv-3" edge="1">
          <mxGeometry width="80" relative="1" as="geometry">
            <mxPoint x="125" y="2320" as="sourcePoint" />
            <mxPoint x="205" y="2320" as="targetPoint" />
          </mxGeometry>
        </mxCell>
        <mxCell id="2tVGv0uhPfWlnNjPmABv-12" value="&lt;div&gt;customizeBot(slectedStocks,&lt;/div&gt;&lt;div&gt;risk,strategy,budget)&lt;/div&gt;" style="html=1;verticalAlign=bottom;endArrow=block;curved=0;rounded=0;" parent="1" target="2tVGv0uhPfWlnNjPmABv-8" edge="1">
          <mxGeometry width="80" relative="1" as="geometry">
            <mxPoint x="330" y="2339.67" as="sourcePoint" />
            <mxPoint x="615" y="2339.67" as="targetPoint" />
          </mxGeometry>
        </mxCell>
        <mxCell id="2tVGv0uhPfWlnNjPmABv-13" value="&lt;div&gt;customizeBot(slectedStocks,&lt;/div&gt;&lt;div&gt;risk,strategy,budget)&lt;/div&gt;" style="html=1;verticalAlign=bottom;endArrow=block;curved=0;rounded=0;exitX=1.162;exitY=0.349;exitDx=0;exitDy=0;exitPerimeter=0;" parent="1" source="2tVGv0uhPfWlnNjPmABv-8" target="2tVGv0uhPfWlnNjPmABv-10" edge="1">
          <mxGeometry width="80" relative="1" as="geometry">
            <mxPoint x="745" y="2356.05" as="sourcePoint" />
            <mxPoint x="994.2600000000002" y="2356.05" as="targetPoint" />
          </mxGeometry>
        </mxCell>
        <mxCell id="2tVGv0uhPfWlnNjPmABv-14" value="Bot customized" style="html=1;verticalAlign=bottom;endArrow=block;curved=0;rounded=0;dashed=1;" parent="1" edge="1">
          <mxGeometry width="80" relative="1" as="geometry">
            <mxPoint x="680.0000000000002" y="2426.2200000000003" as="sourcePoint" />
            <mxPoint x="510.0000000000002" y="2426.2200000000003" as="targetPoint" />
          </mxGeometry>
        </mxCell>
        <mxCell id="2tVGv0uhPfWlnNjPmABv-15" value="Bot customized" style="html=1;verticalAlign=bottom;endArrow=block;curved=0;rounded=0;dashed=1;" parent="1" edge="1">
          <mxGeometry width="80" relative="1" as="geometry">
            <mxPoint x="500.0000000000002" y="2436.2200000000003" as="sourcePoint" />
            <mxPoint x="330" y="2436.2200000000003" as="targetPoint" />
          </mxGeometry>
        </mxCell>
        <mxCell id="2tVGv0uhPfWlnNjPmABv-16" value="Bot customized" style="html=1;verticalAlign=bottom;endArrow=block;curved=0;rounded=0;dashed=1;" parent="1" edge="1">
          <mxGeometry width="80" relative="1" as="geometry">
            <mxPoint x="315" y="2446.2200000000003" as="sourcePoint" />
            <mxPoint x="125" y="2446.2200000000003" as="targetPoint" />
          </mxGeometry>
        </mxCell>
        <mxCell id="2tVGv0uhPfWlnNjPmABv-17" value="&lt;u&gt;:Report&lt;br&gt;&lt;/u&gt;" style="shape=umlLifeline;perimeter=lifelinePerimeter;whiteSpace=wrap;html=1;container=1;dropTarget=0;collapsible=0;recursiveResize=0;outlineConnect=0;portConstraint=eastwest;newEdgeStyle={&quot;curved&quot;:0,&quot;rounded&quot;:0};" parent="1" vertex="1">
          <mxGeometry x="1050" y="1140" width="100" height="300" as="geometry" />
        </mxCell>
        <mxCell id="2tVGv0uhPfWlnNjPmABv-18" value="" style="html=1;points=[[0,0,0,0,5],[0,1,0,0,-5],[1,0,0,0,5],[1,1,0,0,-5]];perimeter=orthogonalPerimeter;outlineConnect=0;targetShapes=umlLifeline;portConstraint=eastwest;newEdgeStyle={&quot;curved&quot;:0,&quot;rounded&quot;:0};" parent="2tVGv0uhPfWlnNjPmABv-17" vertex="1">
          <mxGeometry x="45" y="110" width="10" height="160" as="geometry" />
        </mxCell>
        <mxCell id="2tVGv0uhPfWlnNjPmABv-19" value="AccessDB(reportId)" style="html=1;verticalAlign=bottom;endArrow=block;curved=0;rounded=0;" parent="1" edge="1">
          <mxGeometry width="80" relative="1" as="geometry">
            <mxPoint x="1105" y="1346.11" as="sourcePoint" />
            <mxPoint x="1265" y="1346.11" as="targetPoint" />
          </mxGeometry>
        </mxCell>
        <mxCell id="2tVGv0uhPfWlnNjPmABv-20" value="Report" style="html=1;verticalAlign=bottom;endArrow=block;curved=0;rounded=0;dashed=1;" parent="1" edge="1">
          <mxGeometry width="80" relative="1" as="geometry">
            <mxPoint x="1265" y="1370" as="sourcePoint" />
            <mxPoint x="1105" y="1370" as="targetPoint" />
          </mxGeometry>
        </mxCell>
        <mxCell id="h-QlxrjOAg-Av81_AVd5-6" value="&lt;u&gt;:Portfolio&lt;/u&gt;" style="shape=umlLifeline;perimeter=lifelinePerimeter;whiteSpace=wrap;html=1;container=1;dropTarget=0;collapsible=0;recursiveResize=0;outlineConnect=0;portConstraint=eastwest;newEdgeStyle={&quot;curved&quot;:0,&quot;rounded&quot;:0};" parent="1" vertex="1">
          <mxGeometry x="1900" y="1682.44" width="100" height="300" as="geometry" />
        </mxCell>
        <mxCell id="h-QlxrjOAg-Av81_AVd5-7" value="" style="html=1;points=[[0,0,0,0,5],[0,1,0,0,-5],[1,0,0,0,5],[1,1,0,0,-5]];perimeter=orthogonalPerimeter;outlineConnect=0;targetShapes=umlLifeline;portConstraint=eastwest;newEdgeStyle={&quot;curved&quot;:0,&quot;rounded&quot;:0};" parent="h-QlxrjOAg-Av81_AVd5-6" vertex="1">
          <mxGeometry x="45" y="110" width="10" height="160" as="geometry" />
        </mxCell>
        <mxCell id="h-QlxrjOAg-Av81_AVd5-8" value="createPortfolio()" style="html=1;verticalAlign=bottom;endArrow=block;curved=0;rounded=0;" parent="1" edge="1">
          <mxGeometry width="80" relative="1" as="geometry">
            <mxPoint x="1700" y="1860" as="sourcePoint" />
            <mxPoint x="1940" y="1860" as="targetPoint" />
          </mxGeometry>
        </mxCell>
        <mxCell id="h-QlxrjOAg-Av81_AVd5-9" value="Portfolio created" style="html=1;verticalAlign=bottom;endArrow=block;curved=0;rounded=0;dashed=1;" parent="1" target="-R4UiotYeWdrvrbhJRBY-179" edge="1">
          <mxGeometry width="80" relative="1" as="geometry">
            <mxPoint x="1940" y="1906.22" as="sourcePoint" />
            <mxPoint x="1760" y="1906.2200000000007" as="targetPoint" />
          </mxGeometry>
        </mxCell>
        <mxCell id="9mwSqcz3Qc7K304M7A94-1" value="User" style="shape=umlActor;verticalLabelPosition=bottom;verticalAlign=top;html=1;outlineConnect=0;" vertex="1" parent="1">
          <mxGeometry x="825" y="2190" width="30" height="60" as="geometry" />
        </mxCell>
        <mxCell id="9mwSqcz3Qc7K304M7A94-2" value="&lt;div&gt;&lt;u&gt;&amp;lt;&amp;lt;Controller&amp;gt;&amp;gt;&lt;/u&gt;&lt;/div&gt;&lt;div&gt;&lt;u&gt;:TradingHandler&lt;/u&gt;&lt;br&gt;&lt;/div&gt;" style="shape=umlLifeline;perimeter=lifelinePerimeter;whiteSpace=wrap;html=1;container=1;dropTarget=0;collapsible=0;recursiveResize=0;outlineConnect=0;portConstraint=eastwest;newEdgeStyle={&quot;curved&quot;:0,&quot;rounded&quot;:0};" vertex="1" parent="1">
          <mxGeometry x="995" y="2190" width="100" height="300" as="geometry" />
        </mxCell>
        <mxCell id="9mwSqcz3Qc7K304M7A94-3" value="" style="html=1;points=[[0,0,0,0,5],[0,1,0,0,-5],[1,0,0,0,5],[1,1,0,0,-5]];perimeter=orthogonalPerimeter;outlineConnect=0;targetShapes=umlLifeline;portConstraint=eastwest;newEdgeStyle={&quot;curved&quot;:0,&quot;rounded&quot;:0};" vertex="1" parent="9mwSqcz3Qc7K304M7A94-2">
          <mxGeometry x="45" y="110" width="10" height="160" as="geometry" />
        </mxCell>
        <mxCell id="9mwSqcz3Qc7K304M7A94-4" value="" style="endArrow=none;dashed=1;endFill=0;endSize=12;html=1;rounded=0;" edge="1" parent="1" source="9mwSqcz3Qc7K304M7A94-6">
          <mxGeometry width="160" relative="1" as="geometry">
            <mxPoint x="839.78" y="2280" as="sourcePoint" />
            <mxPoint x="840" y="2506.222222222222" as="targetPoint" />
          </mxGeometry>
        </mxCell>
        <mxCell id="9mwSqcz3Qc7K304M7A94-5" value="" style="endArrow=none;dashed=1;endFill=0;endSize=12;html=1;rounded=0;" edge="1" parent="1" target="9mwSqcz3Qc7K304M7A94-6">
          <mxGeometry width="160" relative="1" as="geometry">
            <mxPoint x="839.78" y="2280" as="sourcePoint" />
            <mxPoint x="840" y="2506.222222222222" as="targetPoint" />
          </mxGeometry>
        </mxCell>
        <mxCell id="9mwSqcz3Qc7K304M7A94-6" value="" style="html=1;points=[[0,0,0,0,5],[0,1,0,0,-5],[1,0,0,0,5],[1,1,0,0,-5]];perimeter=orthogonalPerimeter;outlineConnect=0;targetShapes=umlLifeline;portConstraint=eastwest;newEdgeStyle={&quot;curved&quot;:0,&quot;rounded&quot;:0};" vertex="1" parent="1">
          <mxGeometry x="835" y="2300" width="10" height="160" as="geometry" />
        </mxCell>
        <mxCell id="9mwSqcz3Qc7K304M7A94-7" value="&lt;u&gt;:User&lt;/u&gt;" style="shape=umlLifeline;perimeter=lifelinePerimeter;whiteSpace=wrap;html=1;container=1;dropTarget=0;collapsible=0;recursiveResize=0;outlineConnect=0;portConstraint=eastwest;newEdgeStyle={&quot;curved&quot;:0,&quot;rounded&quot;:0};" vertex="1" parent="1">
          <mxGeometry x="1175" y="2190" width="100" height="300" as="geometry" />
        </mxCell>
        <mxCell id="9mwSqcz3Qc7K304M7A94-8" value="" style="html=1;points=[[0,0,0,0,5],[0,1,0,0,-5],[1,0,0,0,5],[1,1,0,0,-5]];perimeter=orthogonalPerimeter;outlineConnect=0;targetShapes=umlLifeline;portConstraint=eastwest;newEdgeStyle={&quot;curved&quot;:0,&quot;rounded&quot;:0};" vertex="1" parent="9mwSqcz3Qc7K304M7A94-7">
          <mxGeometry x="45" y="110" width="10" height="160" as="geometry" />
        </mxCell>
        <mxCell id="9mwSqcz3Qc7K304M7A94-9" value="&lt;u&gt;:Bot&lt;br&gt;&lt;/u&gt;" style="shape=umlLifeline;perimeter=lifelinePerimeter;whiteSpace=wrap;html=1;container=1;dropTarget=0;collapsible=0;recursiveResize=0;outlineConnect=0;portConstraint=eastwest;newEdgeStyle={&quot;curved&quot;:0,&quot;rounded&quot;:0};" vertex="1" parent="1">
          <mxGeometry x="1355" y="2190" width="100" height="300" as="geometry" />
        </mxCell>
        <mxCell id="9mwSqcz3Qc7K304M7A94-10" value="" style="html=1;points=[[0,0,0,0,5],[0,1,0,0,-5],[1,0,0,0,5],[1,1,0,0,-5]];perimeter=orthogonalPerimeter;outlineConnect=0;targetShapes=umlLifeline;portConstraint=eastwest;newEdgeStyle={&quot;curved&quot;:0,&quot;rounded&quot;:0};" vertex="1" parent="9mwSqcz3Qc7K304M7A94-9">
          <mxGeometry x="45" y="110" width="10" height="160" as="geometry" />
        </mxCell>
        <mxCell id="9mwSqcz3Qc7K304M7A94-11" value="backtesting(botId,period)" style="html=1;verticalAlign=bottom;endArrow=block;curved=0;rounded=0;" edge="1" parent="1" target="9mwSqcz3Qc7K304M7A94-3">
          <mxGeometry width="80" relative="1" as="geometry">
            <mxPoint x="845" y="2320" as="sourcePoint" />
            <mxPoint x="925" y="2320" as="targetPoint" />
          </mxGeometry>
        </mxCell>
        <mxCell id="9mwSqcz3Qc7K304M7A94-12" value="backtesting(botId,period)" style="html=1;verticalAlign=bottom;endArrow=block;curved=0;rounded=0;" edge="1" parent="1" target="9mwSqcz3Qc7K304M7A94-8">
          <mxGeometry width="80" relative="1" as="geometry">
            <mxPoint x="1050" y="2339.67" as="sourcePoint" />
            <mxPoint x="1335" y="2339.67" as="targetPoint" />
          </mxGeometry>
        </mxCell>
        <mxCell id="9mwSqcz3Qc7K304M7A94-13" value="backtesting(botId,period)" style="html=1;verticalAlign=bottom;endArrow=block;curved=0;rounded=0;exitX=1.162;exitY=0.349;exitDx=0;exitDy=0;exitPerimeter=0;" edge="1" parent="1" source="9mwSqcz3Qc7K304M7A94-8" target="9mwSqcz3Qc7K304M7A94-10">
          <mxGeometry width="80" relative="1" as="geometry">
            <mxPoint x="1465" y="2356.05" as="sourcePoint" />
            <mxPoint x="1714.2600000000002" y="2356.05" as="targetPoint" />
          </mxGeometry>
        </mxCell>
        <mxCell id="9mwSqcz3Qc7K304M7A94-14" value="Results" style="html=1;verticalAlign=bottom;endArrow=block;curved=0;rounded=0;dashed=1;" edge="1" parent="1">
          <mxGeometry width="80" relative="1" as="geometry">
            <mxPoint x="1400.0000000000002" y="2426.2200000000003" as="sourcePoint" />
            <mxPoint x="1230.0000000000002" y="2426.2200000000003" as="targetPoint" />
          </mxGeometry>
        </mxCell>
        <mxCell id="9mwSqcz3Qc7K304M7A94-15" value="Results" style="html=1;verticalAlign=bottom;endArrow=block;curved=0;rounded=0;dashed=1;" edge="1" parent="1">
          <mxGeometry width="80" relative="1" as="geometry">
            <mxPoint x="1220.0000000000002" y="2436.2200000000003" as="sourcePoint" />
            <mxPoint x="1050" y="2436.2200000000003" as="targetPoint" />
          </mxGeometry>
        </mxCell>
        <mxCell id="9mwSqcz3Qc7K304M7A94-16" value="Results" style="html=1;verticalAlign=bottom;endArrow=block;curved=0;rounded=0;dashed=1;" edge="1" parent="1">
          <mxGeometry width="80" relative="1" as="geometry">
            <mxPoint x="1035" y="2446.2200000000003" as="sourcePoint" />
            <mxPoint x="845" y="2446.2200000000003" as="targetPoint" />
          </mxGeometry>
        </mxCell>
      </root>
    </mxGraphModel>
  </diagram>
</mxfile>
